<?xml version="1.0" encoding="UTF-8" standalone="no"?>
<!-- Created with Inkscape (http://www.inkscape.org/) -->

<svg
   xmlns:dc="http://purl.org/dc/elements/1.1/"
   xmlns:cc="http://creativecommons.org/ns#"
   xmlns:rdf="http://www.w3.org/1999/02/22-rdf-syntax-ns#"
   xmlns:svg="http://www.w3.org/2000/svg"
   xmlns="http://www.w3.org/2000/svg"
   xmlns:sodipodi="http://sodipodi.sourceforge.net/DTD/sodipodi-0.dtd"
   xmlns:inkscape="http://www.inkscape.org/namespaces/inkscape"
   width="137.58333mm"
   height="137.58333mm"
   viewBox="0 0 137.58333 137.58333"
   version="1.1"
   id="svg2726"
   inkscape:version="0.92.5 (2060ec1f9f, 2020-04-08)"
   sodipodi:docname="Seal_of_the_Department_of_Energy_(Philippines).svg">
  <title
     id="title4014">Department of Energy (DOE) Philippines</title>
  <defs
     id="defs2720">
    <circle
       r="199.89008"
       cy="541.22137"
       cx="387.19965"
       style="color:#000000;display:inline;overflow:visible;visibility:visible;fill:#ffff18;fill-opacity:1;stroke:none;stroke-width:4.08909655;marker:none;enable-background:accumulate"
       id="path3946-1-1"
       transform="matrix(-0.70198414,0.40529073,-0.40529073,-0.70198414,863.20726,749.1815)" />
    <circle
       r="199.89008"
       cy="541.22137"
       cx="387.19965"
       style="color:#000000;display:inline;overflow:visible;visibility:visible;fill:#ffff18;fill-opacity:1;stroke:none;stroke-width:4.08909655;marker:none;enable-background:accumulate"
       id="path3946-1-1-2"
       transform="matrix(-0.70198414,0.40529073,-0.40529073,-0.70198414,863.20726,749.1815)" />
    <circle
       r="199.89008"
       cy="541.22137"
       cx="387.19965"
       style="color:#000000;display:inline;overflow:visible;visibility:visible;fill:#ffff18;fill-opacity:1;stroke:none;stroke-width:4.08909655;marker:none;enable-background:accumulate"
       id="path3946-1-1-0"
       transform="matrix(-0.70198414,0.40529073,-0.40529073,-0.70198414,863.20726,749.1815)" />
    <circle
       r="199.89008"
       cy="541.22137"
       cx="387.19965"
       style="color:#000000;display:inline;overflow:visible;visibility:visible;fill:#ffff18;fill-opacity:1;stroke:none;stroke-width:4.08909655;marker:none;enable-background:accumulate"
       id="path3946-1-1-2-1"
       transform="matrix(-0.70198414,0.40529073,-0.40529073,-0.70198414,863.20726,749.1815)" />
  </defs>
  <sodipodi:namedview
     id="base"
     pagecolor="#ffffff"
     bordercolor="#666666"
     borderopacity="1.0"
     inkscape:pageopacity="0.0"
     inkscape:pageshadow="2"
     inkscape:zoom="0.98994949"
     inkscape:cx="-146.68721"
     inkscape:cy="194.71691"
     inkscape:document-units="mm"
     inkscape:current-layer="layer1"
     showgrid="false"
     inkscape:snap-global="true"
     inkscape:snap-object-midpoints="true"
     inkscape:snap-center="true"
     inkscape:object-nodes="false"
     inkscape:snap-nodes="false"
     fit-margin-top="0"
     fit-margin-left="0"
     fit-margin-right="0"
     fit-margin-bottom="0"
     inkscape:window-width="1920"
     inkscape:window-height="1009"
     inkscape:window-x="-8"
     inkscape:window-y="1068"
     inkscape:window-maximized="1" />
  <metadata
     id="metadata2723">
    <rdf:RDF>
      <cc:Work
         rdf:about="">
        <dc:format>image/svg+xml</dc:format>
        <dc:type
           rdf:resource="http://purl.org/dc/dcmitype/StillImage" />
        <dc:title>Department of Energy (DOE) Philippines</dc:title>
      </cc:Work>
    </rdf:RDF>
  </metadata>
  <g
     inkscape:label="Layer 1"
     inkscape:groupmode="layer"
     id="layer1"
     transform="translate(-33.261909,-53.381287)">
    <rect
       style="color:#000000;display:inline;overflow:visible;visibility:visible;opacity:0.98999999;fill:#0038a8;fill-opacity:1;fill-rule:nonzero;stroke:none;stroke-width:0.26458332;marker:none;enable-background:accumulate"
       id="rect28403"
       width="137.58333"
       height="137.58333"
       x="33.261909"
       y="53.381287" />
    <g
       transform="matrix(0.21206852,0,0,0.21206852,-146.01652,19.93643)"
       id="g8815"
       style="fill:#fcd116;fill-opacity:1">
      <path
         sodipodi:type="star"
         style="color:#000000;display:inline;overflow:visible;visibility:visible;fill:#fcd116;fill-opacity:1;fill-rule:evenodd;stroke:#000000;stroke-width:1;stroke-linecap:butt;stroke-linejoin:miter;stroke-miterlimit:4;stroke-dasharray:none;stroke-dashoffset:0;stroke-opacity:1;enable-background:accumulate"
         id="path8429"
         sodipodi:sides="5"
         sodipodi:cx="1145.9399"
         sodipodi:cy="316.90332"
         sodipodi:r1="59.766537"
         sodipodi:r2="48.352139"
         sodipodi:arg1="0.92729522"
         sodipodi:arg2="1.5556137"
         inkscape:flatsided="true"
         inkscape:rounded="0"
         inkscape:randomized="0"
         d="m 1181.7999,364.71655 -70.2517,1.06668 -22.7235,-66.48369 56.2079,-42.15587 57.4618,40.42994 z"
         inkscape:transform-center-x="-155.17445"
         inkscape:transform-center-y="-154.4322"
         transform="matrix(0.94547962,0.94547962,-0.95064786,0.95064786,546.30773,-1061.3776)" />
      <path
         sodipodi:type="star"
         style="color:#000000;display:inline;overflow:visible;visibility:visible;fill:#fcd116;fill-opacity:1;fill-rule:evenodd;stroke:#000000;stroke-width:1;stroke-linecap:butt;stroke-linejoin:miter;stroke-miterlimit:4;stroke-dasharray:none;stroke-dashoffset:0;stroke-opacity:1;enable-background:accumulate"
         id="path8429-9"
         sodipodi:sides="5"
         sodipodi:cx="1145.9399"
         sodipodi:cy="316.90332"
         sodipodi:r1="59.766537"
         sodipodi:r2="48.352139"
         sodipodi:arg1="0.92729522"
         sodipodi:arg2="1.5556137"
         inkscape:flatsided="true"
         inkscape:rounded="0"
         inkscape:randomized="0"
         d="m 1181.7999,364.71655 -70.2517,1.06668 -22.7235,-66.48369 56.2079,-42.15587 57.4618,40.42994 z"
         inkscape:transform-center-x="154.43225"
         inkscape:transform-center-y="-155.17453"
         transform="matrix(0.94547962,-0.94547962,0.95064786,0.95064786,-373.70571,1105.5481)" />
      <path
         sodipodi:type="star"
         style="color:#000000;display:inline;overflow:visible;visibility:visible;fill:#fcd116;fill-opacity:1;fill-rule:evenodd;stroke:#000000;stroke-width:1;stroke-linecap:butt;stroke-linejoin:miter;stroke-miterlimit:4;stroke-dasharray:none;stroke-dashoffset:0;stroke-opacity:1;enable-background:accumulate"
         id="path8429-6"
         sodipodi:sides="5"
         sodipodi:cx="1145.9399"
         sodipodi:cy="316.90332"
         sodipodi:r1="59.766537"
         sodipodi:r2="48.352139"
         sodipodi:arg1="0.92729522"
         sodipodi:arg2="1.5556137"
         inkscape:flatsided="true"
         inkscape:rounded="0"
         inkscape:randomized="0"
         d="m 1181.7999,364.71655 -70.2517,1.06668 -22.7235,-66.48369 56.2079,-42.15587 57.4618,40.42994 z"
         inkscape:transform-center-x="-231.81026"
         inkscape:transform-center-y="-0.37493511"
         transform="matrix(0,1.3371101,-1.3444191,0,1820.3116,-1050.1559)" />
      <path
         sodipodi:type="star"
         style="color:#000000;display:inline;overflow:visible;visibility:visible;fill:#fcd116;fill-opacity:1;fill-rule:evenodd;stroke:#000000;stroke-width:1;stroke-linecap:butt;stroke-linejoin:miter;stroke-miterlimit:4;stroke-dasharray:none;stroke-dashoffset:0;stroke-opacity:1;enable-background:accumulate"
         id="path8429-97"
         sodipodi:sides="5"
         sodipodi:cx="1145.9399"
         sodipodi:cy="316.90332"
         sodipodi:r1="59.766537"
         sodipodi:r2="48.352139"
         sodipodi:arg1="0.92729522"
         sodipodi:arg2="1.5556137"
         inkscape:flatsided="true"
         inkscape:rounded="0"
         inkscape:randomized="0"
         d="m 1181.7999,364.71655 -70.2517,1.06668 -22.7235,-66.48369 56.2079,-42.15587 57.4618,40.42994 z"
         inkscape:transform-center-x="-154.43219"
         inkscape:transform-center-y="155.17448"
         transform="matrix(-0.94547962,0.94547962,-0.95064786,-0.95064786,2713.2335,-141.36418)" />
      <path
         sodipodi:type="star"
         style="color:#000000;display:inline;overflow:visible;visibility:visible;fill:#fcd116;fill-opacity:1;fill-rule:evenodd;stroke:#000000;stroke-width:1;stroke-linecap:butt;stroke-linejoin:miter;stroke-miterlimit:4;stroke-dasharray:none;stroke-dashoffset:0;stroke-opacity:1;enable-background:accumulate"
         id="path8429-3"
         sodipodi:sides="5"
         sodipodi:cx="1145.9399"
         sodipodi:cy="316.90332"
         sodipodi:r1="59.766537"
         sodipodi:r2="48.352139"
         sodipodi:arg1="0.92729522"
         sodipodi:arg2="1.5556137"
         inkscape:flatsided="true"
         inkscape:rounded="0"
         inkscape:randomized="0"
         d="m 1181.7999,364.71655 -70.2517,1.06668 -22.7235,-66.48369 56.2079,-42.15587 57.4618,40.42994 z"
         inkscape:transform-center-x="-0.37492511"
         inkscape:transform-center-y="231.8103"
         transform="matrix(-1.3371101,0,0,-1.3444191,2702.0118,1132.6397)" />
      <path
         sodipodi:type="star"
         style="color:#000000;display:inline;overflow:visible;visibility:visible;fill:#fcd116;fill-opacity:1;fill-rule:evenodd;stroke:#000000;stroke-width:1;stroke-linecap:butt;stroke-linejoin:miter;stroke-miterlimit:4;stroke-dasharray:none;stroke-dashoffset:0;stroke-opacity:1;enable-background:accumulate"
         id="path8429-39"
         sodipodi:sides="5"
         sodipodi:cx="1145.9399"
         sodipodi:cy="316.90332"
         sodipodi:r1="59.766537"
         sodipodi:r2="48.352139"
         sodipodi:arg1="0.92729522"
         sodipodi:arg2="1.5556137"
         inkscape:flatsided="true"
         inkscape:rounded="0"
         inkscape:randomized="0"
         d="m 1181.7999,364.71655 -70.2517,1.06668 -22.7235,-66.48369 56.2079,-42.15587 57.4618,40.42994 z"
         inkscape:transform-center-x="155.17447"
         inkscape:transform-center-y="154.43223"
         transform="matrix(-0.94547962,-0.94547962,0.95064786,-0.95064786,1793.2201,2025.5616)" />
      <path
         sodipodi:type="star"
         style="color:#000000;display:inline;overflow:visible;visibility:visible;fill:#fcd116;fill-opacity:1;fill-rule:evenodd;stroke:#000000;stroke-width:1;stroke-linecap:butt;stroke-linejoin:miter;stroke-miterlimit:4;stroke-dasharray:none;stroke-dashoffset:0;stroke-opacity:1;enable-background:accumulate"
         id="path8429-64"
         sodipodi:sides="5"
         sodipodi:cx="1145.9399"
         sodipodi:cy="316.90332"
         sodipodi:r1="59.766537"
         sodipodi:r2="48.352139"
         sodipodi:arg1="0.92729522"
         sodipodi:arg2="1.5556137"
         inkscape:flatsided="true"
         inkscape:rounded="0"
         inkscape:randomized="0"
         d="m 1181.7999,364.71655 -70.2517,1.06668 -22.7235,-66.48369 56.2079,-42.15587 57.4618,40.42994 z"
         inkscape:transform-center-x="231.81038"
         inkscape:transform-center-y="0.37496511"
         transform="matrix(0,-1.3371101,1.3444191,0,519.21613,2014.3399)" />
      <path
         sodipodi:type="star"
         style="color:#000000;display:inline;overflow:visible;visibility:visible;fill:#fcd116;fill-opacity:1;fill-rule:evenodd;stroke:#000000;stroke-width:1;stroke-linecap:butt;stroke-linejoin:miter;stroke-miterlimit:4;stroke-dasharray:none;stroke-dashoffset:0;stroke-opacity:1;enable-background:accumulate"
         id="path8429-99"
         sodipodi:sides="5"
         sodipodi:cx="1145.9399"
         sodipodi:cy="316.90332"
         sodipodi:r1="59.766537"
         sodipodi:r2="48.352139"
         sodipodi:arg1="0.92729522"
         sodipodi:arg2="1.5556137"
         inkscape:flatsided="true"
         inkscape:rounded="0"
         inkscape:randomized="0"
         d="m 1181.7999,364.71655 -70.2517,1.06668 -22.7235,-66.48369 56.2079,-42.15587 57.4618,40.42994 z"
         inkscape:transform-center-x="0.3749181"
         inkscape:transform-center-y="-231.8104"
         transform="matrix(1.3371101,0,0,1.3444191,-362.48395,-168.45583)" />
    </g>
    <circle
       r="38.954731"
       cy="122.17295"
       cx="102.05357"
       id="path8707"
       style="color:#000000;display:inline;overflow:visible;visibility:visible;fill:#ffffff;fill-opacity:1;fill-rule:evenodd;stroke:#000000;stroke-width:1.06034255;stroke-linecap:butt;stroke-linejoin:miter;stroke-miterlimit:4;stroke-dasharray:none;stroke-dashoffset:0;stroke-opacity:1;enable-background:accumulate" />
    <ellipse
       ry="26.148981"
       rx="26.148985"
       cy="122.17295"
       cx="102.05357"
       id="path8497-8"
       style="color:#000000;display:inline;overflow:visible;visibility:visible;fill:#fcd116;fill-opacity:1;fill-rule:evenodd;stroke:#000000;stroke-width:0.63620555;stroke-linecap:butt;stroke-linejoin:miter;stroke-miterlimit:4;stroke-dasharray:none;stroke-dashoffset:0;stroke-opacity:1;enable-background:accumulate" />
    <path
       inkscape:transform-center-y="-74.919735"
       inkscape:transform-center-x="29.81105"
       sodipodi:nodetypes="cccc"
       inkscape:connector-curvature="0"
       id="path8516-5"
       d="m 91.898609,101.42298 0.361959,9.72371 7.303979,-3.91576 z"
       style="display:inline;fill:#0038a8;fill-opacity:1;fill-rule:evenodd;stroke:none;stroke-width:0.21206851" />
    <path
       inkscape:transform-center-y="26.624615"
       inkscape:transform-center-x="-78.11795"
       sodipodi:nodetypes="cccc"
       inkscape:connector-curvature="0"
       id="path8516-9"
       d="m 123.41462,130.97011 -6.71909,-7.03817 -2.87031,7.77452 z"
       style="display:inline;fill:#0038a8;fill-opacity:1;fill-rule:evenodd;stroke:none;stroke-width:0.21206851" />
    <path
       inkscape:transform-center-y="-5.36588"
       inkscape:transform-center-x="-86.7286"
       sodipodi:nodetypes="cccc"
       inkscape:connector-curvature="0"
       id="path8516-74"
       d="m 125.0561,120.03559 -9.22026,-3.10952 1.07144,8.2179 z"
       style="display:inline;fill:#0038a8;fill-opacity:1;fill-rule:evenodd;stroke:none;stroke-width:0.21206851" />
    <path
       inkscape:transform-center-y="-39.73793"
       inkscape:transform-center-x="-68.7038"
       sodipodi:nodetypes="cccc"
       inkscape:connector-curvature="0"
       id="path8516-75"
       d="m 121.42807,109.59071 -9.60919,1.53147 4.76771,6.77869 z"
       style="display:inline;fill:#0038a8;fill-opacity:1;fill-rule:evenodd;stroke:none;stroke-width:0.21206851" />
    <path
       inkscape:transform-center-y="-72.33808"
       inkscape:transform-center-x="-34.94015"
       sodipodi:nodetypes="cccc"
       inkscape:connector-curvature="0"
       id="path8516-8"
       d="m 113.36168,102.02821 -7.79682,5.82161 7.37177,3.78662 z"
       style="display:inline;fill:#0038a8;fill-opacity:1;fill-rule:evenodd;stroke:none;stroke-width:0.21206851" />
    <path
       inkscape:transform-center-y="61.48735"
       inkscape:transform-center-x="-49.0836"
       sodipodi:nodetypes="cccc"
       inkscape:connector-curvature="0"
       id="path8516-40"
       d="m 116.8792,139.88976 -2.67847,-9.35455 -6.15463,5.54991 z"
       style="display:inline;fill:#0038a8;fill-opacity:1;fill-rule:evenodd;stroke:none;stroke-width:0.21206851" />
    <path
       inkscape:transform-center-y="83.998205"
       inkscape:transform-center-x="-13.46375"
       sodipodi:nodetypes="cccc"
       inkscape:connector-curvature="0"
       id="path8516-81"
       d="m 106.94761,144.75022 1.97561,-9.52778 -8.02883,2.054 z"
       style="display:inline;fill:#0038a8;fill-opacity:1;fill-rule:evenodd;stroke:none;stroke-width:0.21206851" />
    <path
       inkscape:transform-center-y="82.757045"
       inkscape:transform-center-x="18.9254"
       sodipodi:nodetypes="cccc"
       inkscape:connector-curvature="0"
       id="path8516-31"
       d="m 95.89485,144.43851 6.17709,-7.51833 -8.063715,-1.91245 z"
       style="display:inline;fill:#0038a8;fill-opacity:1;fill-rule:evenodd;stroke:none;stroke-width:0.21206851" />
    <path
       inkscape:transform-center-y="57.714485"
       inkscape:transform-center-x="53.3735"
       sodipodi:nodetypes="cccc"
       inkscape:connector-curvature="0"
       id="path8516-0"
       d="m 86.252985,139.02603 8.963479,-3.78651 -6.251314,-5.44079 z"
       style="display:inline;fill:#0038a8;fill-opacity:1;fill-rule:evenodd;stroke:none;stroke-width:0.21206851" />
    <path
       inkscape:transform-center-y="21.366475"
       inkscape:transform-center-x="80.04255"
       sodipodi:nodetypes="cccc"
       inkscape:connector-curvature="0"
       id="path8516-1"
       d="m 80.230833,129.75272 9.696451,0.81275 -3.006813,-7.72272 z"
       style="display:inline;fill:#0038a8;fill-opacity:1;fill-rule:evenodd;stroke:none;stroke-width:0.21206851" />
    <path
       inkscape:transform-center-y="-10.948775"
       inkscape:transform-center-x="86.19035"
       sodipodi:nodetypes="cccc"
       inkscape:connector-curvature="0"
       id="path8516-745"
       d="m 79.208005,118.74298 8.20807,5.22581 0.926527,-8.23546 z"
       style="display:inline;fill:#0038a8;fill-opacity:1;fill-rule:evenodd;stroke:none;stroke-width:0.21206851" />
    <path
       inkscape:transform-center-y="-44.48135"
       inkscape:transform-center-x="65.50375"
       sodipodi:nodetypes="cccc"
       inkscape:connector-curvature="0"
       id="path8516-6"
       d="m 83.418816,108.51901 4.839319,8.4417 4.647609,-6.86156 z"
       style="display:inline;fill:#0038a8;fill-opacity:1;fill-rule:evenodd;stroke:none;stroke-width:0.21206851" />
    <path
       inkscape:transform-center-y="-88.194915"
       inkscape:transform-center-x="-2.8125"
       sodipodi:nodetypes="cccc"
       inkscape:connector-curvature="0"
       id="path8516"
       d="m 102.70479,99.080531 -4.198338,8.778119 8.287108,-0.0729 z"
       style="display:inline;fill:#0038a8;fill-opacity:1;fill-rule:evenodd;stroke:none;stroke-width:0.21206851" />
    <ellipse
       ry="15.689389"
       rx="15.689391"
       cy="122.17295"
       cx="102.05357"
       id="path8497"
       style="color:#000000;display:inline;overflow:visible;visibility:visible;fill:#0038a8;fill-opacity:1;fill-rule:evenodd;stroke:none;stroke-width:0.21206851;enable-background:accumulate" />
    <path
       sodipodi:open="true"
       d="m 74.207433,131.39267 a 29.33276,29.332756 0 0 1 11.570508,-33.622883 29.33276,29.332756 0 0 1 35.487579,2.237613 29.33276,29.332756 0 0 1 7.25559,34.80993"
       sodipodi:end="0.44567489"
       sodipodi:start="2.8218578"
       sodipodi:ry="29.332756"
       sodipodi:rx="29.33276"
       sodipodi:cy="122.17295"
       sodipodi:cx="102.05357"
       sodipodi:type="arc"
       id="path8497-8-3"
       style="color:#000000;display:inline;overflow:visible;visibility:visible;fill:none;stroke:none;stroke-width:0.21206851;enable-background:accumulate" />
    <path
       sodipodi:open="true"
       d="m 73.032184,-142.82303 a 35.618351,35.618347 0 0 1 30.973346,-14.91474 35.618351,35.618347 0 0 1 29.15505,18.21486"
       sodipodi:end="5.7744108"
       sodipodi:start="3.7600263"
       sodipodi:ry="35.618347"
       sodipodi:rx="35.618351"
       sodipodi:cy="-122.17295"
       sodipodi:cx="102.05357"
       sodipodi:type="arc"
       transform="scale(1,-1)"
       id="path8497-8-3-7"
       style="color:#000000;display:inline;overflow:visible;visibility:visible;fill:none;stroke:none;stroke-width:0.21206851;enable-background:accumulate" />
    <g
       aria-label="DEPARTMENT OF ENERGY"
       style="font-style:normal;font-variant:normal;font-weight:normal;font-stretch:normal;font-size:8.46666622px;line-height:1.25;font-family:'Times New Roman';-inkscape-font-specification:'Times New Roman, ';font-variant-ligatures:normal;font-variant-caps:normal;font-variant-numeric:normal;font-feature-settings:normal;text-align:center;letter-spacing:0.26458332px;word-spacing:1.32291663px;writing-mode:lr-tb;text-anchor:middle;opacity:1;fill:#000000;fill-opacity:1;fill-rule:nonzero;stroke:#006c35;stroke-width:0.02645833;stroke-linecap:square;stroke-linejoin:bevel;stroke-miterlimit:4;stroke-dasharray:none;stroke-dashoffset:0;stroke-opacity:1"
       id="text3908">
      <path
         d="m 72.862066,127.52432 q 0.01504,0.0833 0.05102,0.37795 0.03448,0.2863 0.08549,0.66424 0.05785,0.36812 0.11801,0.7014 0.03008,0.16664 0.05947,0.28178 0.02788,0.10681 0.06028,0.23862 0.03923,0.12197 0.07984,0.34694 0.01955,0.10831 0.0066,0.17948 -0.01296,0.0712 -0.07129,0.0817 -0.06666,0.012 -0.09535,-0.0516 -0.03703,-0.0621 -0.08759,-0.19927 -0.115479,-0.30609 -0.269848,-0.39867 -0.155873,-0.10092 -0.455825,-0.0468 l -3.7494,0.67683 q -0.299952,0.0542 -0.40237,0.20169 -0.103923,0.13921 -0.105093,0.46635 5.74e-4,0.14616 -0.01239,0.21733 -0.02129,0.0727 -0.08795,0.0847 -0.05832,0.0105 -0.09535,-0.0516 -0.03703,-0.0622 -0.05658,-0.17046 -0.03911,-0.21664 -0.05333,-0.34312 -0.02407,-0.13331 -0.03829,-0.2598 -0.02256,-0.12498 -0.05866,-0.32494 -0.02407,-0.13332 -0.06849,-0.33178 -0.04593,-0.2068 -0.101704,-0.42042 -0.05727,-0.22195 -0.09719,-0.39542 -0.04142,-0.1818 -0.05646,-0.26512 -0.153415,-0.84987 -0.05341,-1.48737 0.09167,-0.636 0.390599,-1.07712 0.290593,-0.43962 0.742263,-0.70183 0.441835,-0.26903 0.991747,-0.3683 0.599904,-0.10829 1.165429,0.0219 0.565526,0.13021 1.04599,0.45645 0.472131,0.32774 0.791852,0.81204 0.31972,0.48431 0.428014,1.08421 z m -0.273571,0.15263 q -0.117318,-0.6499 -0.524178,-1.09266 -0.406861,-0.44277 -1.014739,-0.61695 -0.609382,-0.18252 -1.334266,-0.0517 -0.599904,0.10829 -1.030398,0.39249 -0.438827,0.2857 -0.69528,0.67613 -0.264785,0.39194 -0.356221,0.83862 -0.09977,0.44819 -0.02306,0.87312 0.06467,0.35828 0.136297,0.61206 0.06179,0.24695 0.194167,0.36071 0.132382,0.11376 0.382342,0.0686 l 3.716071,-0.67081 q 0.33328,-0.0602 0.46683,-0.27355 0.133551,-0.21339 0.140736,-0.5072 -0.0027,-0.30065 -0.0583,-0.60893 z"
         style="font-style:normal;font-variant:normal;font-weight:normal;font-stretch:normal;font-family:'EB Garamond';-inkscape-font-specification:'EB Garamond';letter-spacing:0.26458332px;word-spacing:0.5291667px;fill:#000000;stroke-width:0.02645833"
         id="path3977"
         inkscape:connector-curvature="0" />
      <path
         d="m 72.337422,123.49819 q -0.0018,0.11006 -0.02838,0.17735 -0.01807,0.0674 -0.06886,0.0666 -0.101586,-0.002 -0.147695,-0.28191 -0.05386,-0.32269 -0.186756,-0.47734 -0.132893,-0.15465 -0.43765,-0.15976 l -3.809464,-0.0639 q -0.304757,-0.005 -0.433869,0.11974 -0.128969,0.11639 -0.193622,0.43708 -0.02781,0.14349 -0.07127,0.2105 -0.04346,0.067 -0.102722,0.066 -0.05079,-8.5e-4 -0.06659,-0.0689 -0.02426,-0.0682 -0.02241,-0.1782 0.0054,-0.32169 0.01755,-0.54165 0.0123,-0.22842 0.02431,-0.43992 0.0037,-0.2201 0.0087,-0.51639 0.0047,-0.27936 0.0098,-0.58412 -0.0032,-0.31336 0.0012,-0.57579 -0.0036,-0.28797 -3.75e-4,-0.48268 -0.0051,-0.20331 -0.0045,-0.23717 7.09e-4,-0.0423 0.01849,-0.0928 0.01778,-0.0505 0.06025,-0.0583 0.237743,-0.0384 0.475486,-0.0767 0.229278,-0.0385 0.398587,-0.0357 0.07619,0.001 0.100876,0.044 0.02483,0.0343 0.02412,0.0766 -7.1e-4,0.0423 -0.01793,0.059 -0.02568,0.0165 -0.06829,0.0327 -0.144623,0.0399 -0.272315,0.0801 -0.136157,0.0401 -0.196409,0.0983 -0.137435,0.11625 -0.182176,0.25945 -0.05321,0.14306 -0.0559,0.30391 l -0.0186,1.10898 q -0.0011,0.0677 0.07307,0.18751 0.0742,0.1198 0.192718,0.12179 l 1.794681,0.0301 q 0.07619,0.001 0.136158,-0.0401 0.05164,-0.0499 0.05264,-0.1092 l 0.01405,-0.83808 q 0.0041,-0.2455 -0.07898,-0.34004 -0.09156,-0.0947 -0.327598,-0.15791 -0.185389,-0.0539 -0.183685,-0.1555 5.67e-4,-0.0339 0.035,-0.0672 0.03457,-0.0418 0.102296,-0.0406 0.03386,5.6e-4 0.152236,0.011 0.118517,0.002 0.245357,0.0126 0.12684,0.0106 0.194564,0.0117 0.08465,0.001 0.228568,0.004 0.13559,-0.006 0.262572,-0.004 0.127124,-0.006 0.160986,-0.006 0.05926,9.9e-4 0.101302,0.0186 0.04218,0.009 0.04133,0.06 -0.0021,0.12698 -0.27416,0.19016 -0.195558,0.0475 -0.290097,0.13063 -0.09454,0.0831 -0.09738,0.2524 l -0.0132,0.78729 q -0.0024,0.14391 0.03864,0.22081 0.03273,0.0683 0.176639,0.0707 l 1.625372,0.0272 q 0.321688,0.005 0.450941,-0.12792 0.120788,-0.13346 0.125615,-0.42129 l 0.0105,-0.62645 q 0.0045,-0.27089 -0.01787,-0.44909 -0.03074,-0.18681 -0.113123,-0.32368 -0.09085,-0.13701 -0.241524,-0.24115 -0.150533,-0.1126 -0.402226,-0.25231 -0.05037,-0.0263 -0.08366,-0.0607 -0.03329,-0.0344 -0.02412,-0.0766 0.0092,-0.0422 0.04346,-0.067 0.02582,-0.025 0.07661,-0.0241 0.07619,0.001 0.270186,0.0469 0.18553,0.0455 0.387566,0.11659 0.202178,0.0627 0.319843,0.11544 0.05883,0.0264 0.100734,0.0525 0.04204,0.0176 0.04119,0.0684 -0.0068,0.40634 -0.0211,0.75329 -0.01429,0.34694 -0.028,0.66002 -0.01372,0.31308 -0.02729,0.61769 -0.01343,0.29615 -0.01883,0.61784 -0.0031,0.18624 0.0031,0.32183 0.01466,0.13573 0.02071,0.27979 0.01452,0.1442 0.01069,0.37276 z"
         style="font-style:normal;font-variant:normal;font-weight:normal;font-stretch:normal;font-family:'EB Garamond';-inkscape-font-specification:'EB Garamond';letter-spacing:0.26458332px;word-spacing:0.5291667px;fill:#000000;stroke-width:0.02645833"
         id="path3979"
         inkscape:connector-curvature="0" />
      <path
         d="m 72.540938,118.57419 q -0.01873,0.10846 -0.05529,0.17088 -0.02822,0.0639 -0.07827,0.0552 -0.100118,-0.0173 -0.102618,-0.30126 -0.0036,-0.32713 -0.112629,-0.49202 -0.107549,-0.17324 -0.416244,-0.22656 l -3.520793,-0.60817 q -0.37544,-0.0649 -0.592969,6.8e-4 -0.216087,0.0572 -0.329253,0.36414 -0.04953,0.13751 -0.102773,0.19705 -0.05325,0.0595 -0.111647,0.0495 -0.05006,-0.009 -0.05521,-0.0783 -0.0135,-0.0711 0.0052,-0.17952 0.03891,-0.22527 0.05765,-0.33373 0.02018,-0.1168 0.04581,-0.21548 0.01729,-0.10012 0.04612,-0.26698 0.02882,-0.16686 0.0493,-0.33516 0.01358,-0.17809 0.03118,-0.32971 0.0093,-0.15306 0.02943,-0.26986 0.164291,-0.95111 0.655857,-1.45906 0.493007,-0.51628 1.193828,-0.39522 0.50893,0.0879 0.908184,0.36308 0.390911,0.27374 0.57749,0.73557 0.18802,0.45349 0.07705,1.09591 -0.03171,0.18354 -0.09906,0.27501 -0.07425,0.0817 -0.124313,0.073 -0.03337,-0.006 -0.06788,-0.0547 -0.03307,-0.0573 -0.02586,-0.099 0.0072,-0.0417 0.02996,-0.12371 0.0242,-0.0903 0.05302,-0.25719 0.08647,-0.50059 -0.287452,-0.82294 -0.372479,-0.3307 -1.106673,-0.45752 -0.667449,-0.11529 -1.052222,0.22207 -0.393115,0.33592 -0.498319,0.94497 -0.04035,0.23361 0.01714,0.3982 0.04915,0.16314 0.241039,0.19629 l 3.979664,0.68743 q 0.300352,0.0519 0.505518,-0.0416 0.205166,-0.0934 0.31689,-0.39205 0.04953,-0.13751 0.09443,-0.19849 0.0449,-0.061 0.103303,-0.0509 0.05006,0.009 0.05522,0.0783 0.0135,0.0711 -0.0052,0.17953 -0.03891,0.22527 -0.07722,0.34753 -0.03686,0.11392 -0.0625,0.2126 -0.03254,0.0889 -0.05992,0.24741 -0.03603,0.20858 -0.04817,0.37832 -0.01904,0.15996 -0.03118,0.32971 -0.0107,0.1614 -0.04961,0.38666 z"
         style="font-style:normal;font-variant:normal;font-weight:normal;font-stretch:normal;font-family:'EB Garamond';-inkscape-font-specification:'EB Garamond';letter-spacing:0.26458332px;word-spacing:0.5291667px;fill:#000000;stroke-width:0.02645833"
         id="path3981"
         inkscape:connector-curvature="0" />
      <path
         d="m 73.196012,114.65739 q -0.03727,0.10357 -0.09207,0.15583 -0.04683,0.0551 -0.09463,0.0379 -0.05577,-0.0201 -0.07267,-0.0981 -0.022,-0.0889 -0.01597,-0.2307 0.0108,-0.23006 -0.0536,-0.45119 -0.0644,-0.22114 -0.313296,-0.45467 -0.429596,-0.40653 -0.809791,-0.75029 -0.37733,-0.35174 -0.747326,-0.67383 -0.369996,-0.3221 -0.768992,-0.66364 -0.404096,-0.35236 -0.882124,-0.74933 -0.0972,-0.08 -0.197265,-0.15196 -0.100065,-0.072 -0.224664,-0.12583 0.0019,-0.0803 0.0038,-0.1606 0.0019,-0.0803 -0.0201,-0.1692 -0.022,-0.0889 -0.108999,-0.1472 -0.08413,-0.0663 -0.107398,-0.10163 -0.0051,-0.0108 -0.0022,-0.0188 0.0057,-0.0159 0.02453,-0.0182 0.0376,-0.004 0.08827,0.005 0.05353,10e-4 0.107066,0.003 0.674262,0.0267 1.378156,0.046 0.703895,0.0193 1.362223,0.0403 0.653228,0.0101 1.18059,0.0199 0.522263,-0.001 0.84346,0.007 0.358798,0.003 0.563996,-0.067 0.205199,-0.0701 0.317665,-0.18263 0.115333,-0.12047 0.204533,-0.26833 0.07263,-0.12683 0.151332,-0.1705 0.07073,-0.0465 0.126499,-0.0265 0.0478,0.0172 0.0408,0.0867 -0.007,0.0695 -0.04427,0.17303 -0.04013,0.11153 -0.124867,0.297 -0.07677,0.18833 -0.1701,0.3977 -0.08537,0.21223 -0.1513,0.39546 -0.05447,0.15136 -0.1118,0.3107 -0.05733,0.15933 -0.0981,0.29763 -0.04873,0.13543 -0.08313,0.23103 -0.03727,0.10356 -0.0841,0.1587 -0.04683,0.0551 -0.09463,0.0379 -0.05577,-0.0201 -0.06693,-0.11407 -0.01117,-0.094 0.01017,-0.2033 0.05477,-0.27723 -6.99e-4,-0.42316 -0.05547,-0.14593 -0.182931,-0.1918 -0.119499,-0.043 -0.36263,-0.0675 -0.248232,-0.0353 -0.528963,-0.0554 -0.288697,-0.0229 -0.510796,-0.0308 -0.06947,-0.007 -0.09463,0.0379 -0.03027,0.0341 -0.0704,0.14563 l -0.541801,1.50569 q -0.01147,0.0319 0.0061,0.0832 0.01243,0.0405 0.0886,0.10386 0.07107,0.0526 0.226264,0.1714 0.147232,0.11597 0.318363,0.24053 0.171132,0.12457 0.308164,0.21887 0.137032,0.0943 0.176865,0.10863 0.175265,0.0631 0.343497,-0.0294 0.160266,-0.0953 0.276866,-0.2693 0.166299,-0.2371 0.253932,-0.20556 0.0478,0.0172 0.04877,0.0895 -0.007,0.0695 -0.04427,0.17303 -0.03727,0.10357 -0.1169,0.29987 -0.07963,0.19629 -0.1599,0.41936 -0.0946,0.2629 -0.159567,0.51846 -0.06497,0.25556 -0.136634,0.45473 z m -1.615612,-2.68692 0.444333,-1.23482 q 0.04013,-0.11153 3.01e-4,-0.12587 -0.01593,-0.006 -0.03473,-0.004 -0.0239,-0.009 -0.05067,-0.009 l -2.167449,-0.0781 q -0.160599,-0.004 -0.169199,0.0201 -0.0057,0.0159 0.112499,0.11246 l 1.690949,1.4273 q 0.04207,0.0331 0.058,0.0389 0.03983,0.0143 0.06213,-0.0226 0.02517,-0.0449 0.05383,-0.1246 z"
         style="font-style:normal;font-variant:normal;font-weight:normal;font-stretch:normal;font-family:'EB Garamond';-inkscape-font-specification:'EB Garamond';letter-spacing:0.26458332px;word-spacing:0.5291667px;fill:#000000;stroke-width:0.02645833"
         id="path3983"
         inkscape:connector-curvature="0" />
      <path
         d="m 78.141118,104.57789 q -0.122068,0.20322 -0.267347,0.36287 -0.138022,0.16401 -0.316669,0.26412 -0.178647,0.1001 -0.409537,0.13919 -0.32237,0.0434 -0.614246,0.0854 -0.299135,0.0376 -0.669412,0.0621 -0.365918,0.0172 -0.924951,0.0271 -0.246844,-1.2e-4 -0.470524,0.14207 -0.175748,0.11172 -0.300691,0.25396 -0.127841,0.13062 -0.196133,0.22787 -0.04213,0.0537 -0.01602,0.10889 0.03047,0.0479 0.09579,0.0872 l 1.277408,0.76729 q 0.232256,0.1395 0.471841,0.13526 0.232328,-0.009 0.444438,-0.24663 0.09589,-0.1103 0.159795,-0.15093 0.06391,-0.0406 0.114715,-0.0101 0.04355,0.0262 0.02319,0.0929 -0.0131,0.0712 -0.06978,0.1655 -0.117708,0.19597 -0.197618,0.29612 -0.07555,0.0929 -0.135123,0.17563 -0.06247,0.0711 -0.145303,0.20902 -0.108989,0.18145 -0.181665,0.33533 -0.07557,0.14226 -0.148249,0.29614 -0.06832,0.14662 -0.186024,0.34258 -0.05667,0.0944 -0.113325,0.13934 -0.04939,0.0494 -0.09294,0.0232 -0.0871,-0.0523 0.01322,-0.31799 0.114858,-0.30632 0.07284,-0.49946 -0.03765,-0.20039 -0.306201,-0.3617 l -3.091908,-1.85717 q -0.275804,-0.16567 -0.431145,-0.21947 -0.158238,-0.0654 -0.272977,-0.006 -0.110379,0.0522 -0.25858,0.24962 -0.08863,0.11467 -0.159796,0.15094 -0.07842,0.0319 -0.12923,0.001 -0.04355,-0.0262 -0.02319,-0.0929 0.0131,-0.0712 0.06978,-0.1655 0.117709,-0.19597 0.174383,-0.29032 0.06103,-0.10161 0.120607,-0.18435 0.05232,-0.0871 0.139507,-0.23225 0.08283,-0.13791 0.140967,-0.25114 0.05088,-0.11759 0.122092,-0.25259 0.07557,-0.14226 0.202001,-0.35274 0.479553,-0.79838 1.025627,-1.03335 0.550433,-0.24222 1.145589,0.11527 0.32661,0.19618 0.487652,0.47069 0.153784,0.27015 0.195751,0.56202 0.04197,0.29188 0.02151,0.55614 -0.01018,0.0334 0.01885,0.0508 0.02613,0.006 0.0755,0.006 0.476272,-0.0201 0.903176,-0.0402 0.431264,-0.0274 0.869809,-0.0998 0.438546,-0.0724 0.95554,-0.22605 0.280283,-0.0884 0.434281,-0.26261 0.153999,-0.17416 0.306584,-0.42819 0.06539,-0.10887 0.145231,-0.0609 0.10887,0.0654 0.09428,0.20478 -0.0073,0.14375 -0.07565,0.29037 -0.06106,0.15098 -0.117732,0.24534 z m -4.17078,1.18864 q 0.20054,-0.33387 0.191988,-0.66494 -0.0042,-0.33832 -0.172492,-0.61719 -0.16394,-0.28613 -0.439744,-0.45179 -0.297578,-0.17874 -0.592306,-0.24713 -0.290367,-0.0757 -0.575034,0.0694 -0.287564,0.13345 -0.562218,0.5907 -0.139506,0.23226 -0.03068,0.39639 0.101565,0.15977 0.470262,0.40098 0.17709,0.11625 0.484824,0.31097 0.304836,0.1831 0.740316,0.44468 0.181451,0.10899 0.278775,0.0292 0.09732,-0.0798 0.206313,-0.26126 z"
         style="font-style:normal;font-variant:normal;font-weight:normal;font-stretch:normal;font-family:'EB Garamond';-inkscape-font-specification:'EB Garamond';letter-spacing:0.26458332px;word-spacing:0.5291667px;fill:#000000;stroke-width:0.02645833"
         id="path3985"
         inkscape:connector-curvature="0" />
      <path
         d="m 79.276759,103.10001 q -0.07356,0.0819 -0.137718,0.11529 -0.05786,0.0391 -0.09565,0.005 -0.04409,-0.0396 -0.02402,-0.11262 0.02007,-0.073 0.09737,-0.19707 0.170925,-0.27894 0.177018,-0.5011 -2.06e-4,-0.22781 -0.226945,-0.43151 l -2.44375,-2.195393 q -0.289723,-0.260278 -0.452199,-0.383479 -0.168775,-0.128859 -0.260049,-0.15395 -0.08562,-0.03139 -0.137181,0.01334 -0.09811,0.0712 -0.188642,0.171975 -0.09117,0.08882 -0.238285,0.252573 l -0.265937,0.296021 q -0.135797,0.151163 -0.208612,0.358903 -0.07345,0.19578 -0.0097,0.37823 0.01452,0.0472 0.03789,0.14786 0.01708,0.095 0.0159,0.185 -0.0012,0.09 -0.04644,0.14038 -0.02263,0.0252 -0.05914,0.0152 -0.03085,-0.0163 -0.06234,-0.0446 -0.06298,-0.0566 -0.09768,-0.14466 -0.103436,-0.25227 -0.20805,-0.41454 -0.105254,-0.17422 -0.277869,-0.37482 -0.09575,-0.10879 -0.08636,-0.15725 0.01505,-0.0548 0.03769,-0.07996 0.02263,-0.02519 0.143479,-0.0077 0.126504,0.01121 0.199523,0.03128 0.09693,0.0188 0.247247,-0.08518 0.155973,-0.110272 0.274796,-0.242537 l 1.991696,-2.21701 q 0.198038,-0.220442 0.297326,-0.381638 0.09929,-0.161196 0.145731,-0.301576 0.03011,-0.10953 0.02563,-0.193226 0.0012,-0.08999 0.06908,-0.165574 0.01697,-0.0189 0.07868,0.01378 0.0554,0.02701 0.105791,0.07228 0.03149,0.02829 0.07686,0.09181 0.05103,0.05722 0.07686,0.09181 0.0964,0.120743 0.129808,0.184904 0.03907,0.05786 0.0712,0.09811 0.03213,0.04025 0.11401,0.113805 l 0.07558,0.0679 q 0.05669,0.05093 0.109632,0.144017 0.04665,0.08743 0.0014,0.13782 -0.03961,0.04409 -0.131522,0.007 -0.09192,-0.03705 -0.234216,-0.11936 -0.154897,-0.09363 -0.343642,-0.03556 -0.195043,0.05241 -0.466638,0.354729 l -0.571481,0.636131 q -0.124481,0.138563 -0.148931,0.241794 -0.02445,0.103231 0.109734,0.257923 0.134185,0.154693 0.480593,0.465895 l 2.475242,2.223683 q 0.22674,0.2037 0.458932,0.17328 0.225895,-0.0361 0.479337,-0.2295 0.115085,-0.0901 0.185544,-0.11785 0.07046,-0.0278 0.114548,0.0118 0.03779,0.034 0.0051,0.0957 -0.02637,0.0674 -0.09993,0.14924 -0.152773,0.17006 -0.267217,0.27211 -0.102489,0.10141 -0.199319,0.19653 -0.09683,0.0951 -0.226969,0.23998 -0.141455,0.15745 -0.242663,0.28278 -0.09555,0.11903 -0.202416,0.25065 -0.09491,0.13099 -0.247682,0.30104 z"
         style="font-style:normal;font-variant:normal;font-weight:normal;font-stretch:normal;font-family:'EB Garamond';-inkscape-font-specification:'EB Garamond';letter-spacing:0.26458332px;word-spacing:0.5291667px;fill:#000000;stroke-width:0.02645833"
         id="path3987"
         inkscape:connector-curvature="0" />
      <path
         d="m 82.328005,99.723591 q -0.09038,0.06283 -0.160488,0.08063 -0.06528,0.02476 -0.09428,-0.01695 -0.03383,-0.04866 0.0025,-0.115133 0.03628,-0.06647 0.139966,-0.169483 0.149632,-0.15558 0.169038,-0.364991 0.01941,-0.20941 -0.114983,-0.476889 -0.351532,-0.683661 -0.680425,-1.290256 -0.333725,-0.613547 -0.613099,-1.089582 -0.277255,-0.487819 -0.480234,-0.779797 -0.03866,-0.05561 -0.08216,-0.118181 -0.04349,-0.06257 -0.08428,-0.106397 -0.04561,-0.05078 -0.09818,-0.09673 -0.0574,-0.0529 -0.16558,-0.06019 -0.197626,-0.01729 -0.339971,0.03011 -0.147179,0.04045 -0.326403,0.123795 -0.07918,0.03442 -0.145059,0.02866 -0.07071,-0.01271 -0.104538,-0.06138 -0.03866,-0.05562 0.01907,-0.106062 0.05985,-0.06223 0.164131,-0.134725 0.06952,-0.04833 0.213389,-0.138033 0.150821,-0.09454 0.327331,-0.196621 0.17651,-0.102084 0.32038,-0.191789 0.150822,-0.09454 0.22034,-0.142866 0.04866,-0.03383 0.102754,-0.03019 0.05409,0.0036 0.106657,0.04959 0.12175,0.10097 0.253166,0.215843 0.131415,0.114872 0.271902,0.213128 l 3.036355,2.024106 q 0.05469,0.03417 0.119966,0.0094 0.06045,-0.03171 0.05442,-0.09971 l -0.611943,-3.802326 q -0.0474,-0.142346 -0.114129,-0.312499 -0.06673,-0.170153 -0.123199,-0.295881 -0.04197,-0.104872 0.0067,-0.138702 l 0.250267,-0.173982 q 0.208556,-0.144984 0.418635,-0.332275 0.217032,-0.192124 0.335214,-0.274282 0.03476,-0.02416 0.100039,-0.04892 0.06045,-0.03171 0.09428,0.01695 0.03383,0.04866 0.01145,0.105467 -0.01543,0.05197 -0.09071,0.166175 -0.06621,0.09759 -0.148443,0.216622 -0.08223,0.119037 -0.150561,0.228407 -0.05019,0.07614 -0.05052,0.179484 -0.0052,0.0964 0.04799,0.172867 0.338298,0.48663 0.651837,0.907979 0.315658,0.409564 0.611984,0.791321 0.291494,0.374806 0.585107,0.737826 0.293612,0.363021 0.589939,0.744778 0.163721,0.205841 0.371013,0.237032 0.202458,0.02424 0.493506,-0.105913 0.13268,-0.0613 0.207626,-0.07216 0.07495,-0.01086 0.108776,0.03781 0.029,0.04171 -0.01695,0.09428 -0.04112,0.05952 -0.13149,0.122345 -0.1877,0.130486 -0.322499,0.203573 -0.123015,0.07521 -0.239077,0.14558 -0.116062,0.07037 -0.275955,0.181528 -0.139037,0.09666 -0.23153,0.171268 -0.08554,0.06978 -0.191938,0.154055 -0.09461,0.0864 -0.282312,0.216883 -0.09037,0.06283 -0.160488,0.08063 -0.06528,0.02476 -0.09428,-0.01695 -0.03383,-0.04866 0.0025,-0.115133 0.03145,-0.07342 0.139966,-0.169483 0.182273,-0.16796 0.181418,-0.33235 -0.0057,-0.171343 -0.174837,-0.414658 -0.347963,-0.500533 -0.642171,-0.894075 -0.287255,-0.398374 -0.578749,-0.773179 -0.296327,-0.381758 -0.640981,-0.833033 -0.06011,-0.07164 -0.09004,-0.04052 -0.03476,0.02416 -0.02119,0.117847 l 0.667669,4.371968 q 0.01026,0.04443 -0.0384,0.07825 -0.04383,0.04078 -0.09156,0.0018 -0.836563,-0.624886 -1.695506,-1.192968 -0.856823,-0.579867 -1.879227,-1.219922 -0.03807,-0.02509 -0.07283,-9.29e-4 -0.03476,0.02416 -0.01755,0.06376 0.275731,0.530125 0.505253,0.978947 0.231641,0.437037 0.479304,0.852624 0.247664,0.415587 0.576296,0.888313 0.130486,0.1877 0.359823,0.265434 0.224503,0.07078 0.469008,-0.03732 0.13268,-0.0613 0.207626,-0.07216 0.07495,-0.01085 0.108776,0.03781 0.029,0.04171 -0.01695,0.09428 -0.04112,0.05952 -0.131491,0.122345 -0.1877,0.130486 -0.294691,0.184242 -0.09521,0.05588 -0.176511,0.102084 -0.07435,0.04138 -0.206436,0.1332 -0.125133,0.08699 -0.189819,0.142271 -0.06469,0.05528 -0.150227,0.125059 -0.08071,0.07673 -0.268408,0.207217 z"
         style="font-style:normal;font-variant:normal;font-weight:normal;font-stretch:normal;font-family:'EB Garamond';-inkscape-font-specification:'EB Garamond';letter-spacing:0.26458332px;word-spacing:0.5291667px;fill:#000000;stroke-width:0.02645833"
         id="path3989"
         inkscape:connector-curvature="0" />
      <path
         d="m 89.08918,95.392734 q -0.101817,0.04181 -0.174122,0.04404 -0.06909,0.01006 -0.08839,-0.03693 -0.03859,-0.09399 0.200573,-0.247104 0.275109,-0.177031 0.364632,-0.360232 0.08952,-0.183201 -0.02625,-0.465158 l -1.447179,-3.524453 q -0.115775,-0.281956 -0.281496,-0.351199 -0.157889,-0.07246 -0.478021,-0.0051 -0.142794,0.03118 -0.22153,0.01774 -0.07874,-0.01343 -0.101249,-0.06826 -0.01929,-0.04699 0.03693,-0.08839 0.05301,-0.04922 0.154826,-0.09103 0.297621,-0.122207 0.504472,-0.197989 0.214683,-0.079 0.413702,-0.151566 0.203635,-0.08361 0.477759,-0.196173 0.25846,-0.106126 0.540416,-0.221901 0.286573,-0.126822 0.529368,-0.226517 0.263076,-0.117174 0.443215,-0.191141 0.184755,-0.08501 0.216083,-0.09788 0.03916,-0.01608 0.09259,-0.01971 0.05342,-0.0036 0.07734,0.03231 0.129207,0.203219 0.258415,0.406439 0.125991,0.195387 0.19031,0.35203 0.02894,0.07049 -5.69e-4,0.110065 -0.02168,0.03636 -0.06084,0.05244 -0.03916,0.01608 -0.06126,0.0068 -0.02531,-0.01706 -0.05706,-0.04979 -0.09383,-0.117066 -0.181232,-0.218468 -0.09062,-0.109234 -0.167952,-0.141547 -0.161105,-0.08029 -0.310331,-0.06478 -0.152442,0.0077 -0.301252,0.06878 l -1.026007,0.42129 q -0.06266,0.02573 -0.143363,0.14124 -0.08071,0.115513 -0.03568,0.225162 l 0.681782,1.660409 q 0.02894,0.07049 0.09062,0.109235 0.06629,0.0277 0.121113,0.0052 l 0.77538,-0.31838 q 0.227132,-0.09326 0.281125,-0.206959 0.05078,-0.121529 0.01556,-0.36334 -0.02376,-0.191602 0.07023,-0.230193 0.03133,-0.01286 0.07552,0.0056 0.05202,0.01525 0.07775,0.07791 0.01286,0.03133 0.05006,0.144194 0.04502,0.10965 0.08543,0.230347 0.04041,0.120698 0.06614,0.183355 0.03216,0.07832 0.08683,0.211467 0.05929,0.122098 0.107527,0.23958 0.05607,0.114266 0.06893,0.145594 0.02251,0.05482 0.02293,0.100418 0.0082,0.04238 -0.03874,0.06167 -0.117481,0.04824 -0.283049,-0.176661 -0.120959,-0.160843 -0.234656,-0.214837 -0.113697,-0.05399 -0.270339,0.01033 l -0.728387,0.299083 q -0.133146,0.05467 -0.187556,0.122776 -0.04979,0.05706 0.0049,0.190202 l 0.617463,1.503767 q 0.122206,0.29762 0.295759,0.363647 0.170337,0.05819 0.43663,-0.05115 l 0.579576,-0.237981 q 0.250628,-0.102911 0.405455,-0.193942 0.159442,-0.102079 0.252597,-0.231856 0.08994,-0.137608 0.126036,-0.317178 0.04393,-0.182786 0.07277,-0.469204 0.0042,-0.05664 0.02267,-0.100833 0.01847,-0.04419 0.06084,-0.05244 0.04238,-0.0082 0.07874,0.01343 0.03314,0.01385 0.05244,0.06084 0.02894,0.07049 0.06375,0.266708 0.03159,0.188386 0.04612,0.402084 0.02236,0.210483 0.02039,0.339428 -9.84e-4,0.06447 -0.0084,0.113281 4.15e-4,0.04559 -0.04658,0.06489 -0.375942,0.154365 -0.700275,0.278387 -0.324332,0.124022 -0.617337,0.235181 -0.293004,0.111158 -0.578176,0.2191 -0.27734,0.104726 -0.574961,0.226933 -0.172307,0.07075 -0.294404,0.130038 -0.118882,0.06712 -0.248813,0.129623 -0.126714,0.07034 -0.338181,0.157166 z"
         style="font-style:normal;font-variant:normal;font-weight:normal;font-stretch:normal;font-family:'EB Garamond';-inkscape-font-specification:'EB Garamond';letter-spacing:0.26458332px;word-spacing:0.5291667px;fill:#000000;stroke-width:0.02645833"
         id="path3991"
         inkscape:connector-curvature="0" />
      <path
         d="m 98.80617,92.670806 q -0.07488,0.01411 -0.32304,-0.06839 -0.239837,-0.08406 -0.491242,-0.32102 -0.04112,-0.03533 -0.255024,-0.210432 Q 97.531278,91.8943 97.207042,91.636595 96.889559,91.369003 96.512751,91.060892 96.135943,90.75278 95.759134,90.444669 95.382326,90.136558 95.05809,89.878853 94.732286,89.612828 94.51006,89.439296 94.294586,89.255877 94.243581,89.21379 q -0.07235,-0.06391 -0.11865,-0.08104 -0.04787,-0.02545 -0.08115,-0.01918 -0.0416,0.0078 -0.0457,0.07753 -0.0057,0.06138 0.0037,0.111299 0.06847,0.409265 0.160448,0.943335 0.09198,0.534071 0.190223,1.101423 0.09825,0.567352 0.195409,1.083214 0.04231,0.22465 0.186523,0.395646 0.152529,0.169428 0.471353,0.169686 0.146148,-0.0017 0.218979,0.01906 0.07283,0.02074 0.0838,0.07899 0.0094,0.04992 -0.05403,0.0791 -0.06186,0.0375 -0.170026,0.05787 -0.22465,0.04231 -0.34427,0.04761 -0.109731,0.01205 -0.202823,0.02097 -0.08477,0.0074 -0.242857,0.03713 -0.149767,0.02821 -0.231403,0.0522 -0.08164,0.02399 -0.188234,0.05268 -0.105031,0.03701 -0.329681,0.07933 -0.108165,0.02037 -0.179429,0.0079 -0.0697,-0.0041 -0.0791,-0.05403 -0.01097,-0.05824 0.04932,-0.104061 0.06029,-0.04582 0.195472,-0.105742 0.228753,-0.11201 0.304008,-0.30711 0.07369,-0.203421 0.05007,-0.466054 -0.02627,-0.322443 -0.09015,-0.844574 -0.06545,-0.530452 -0.161158,-1.175821 -0.09728,-0.65369 -0.225784,-1.33596 -0.08306,-0.440979 -0.352073,-0.588467 -0.260695,-0.149056 -0.648731,-0.196586 -0.03642,-0.01037 -0.162304,-0.03835 -0.119134,-0.03787 -0.133239,-0.112753 -0.0141,-0.07488 0.05764,-0.105629 0.07018,-0.03907 0.111783,-0.0469 0.242858,-0.03713 0.394192,-0.05701 0.149766,-0.02821 0.267819,-0.04183 0.118052,-0.01362 0.261065,-0.03194 0.141447,-0.02664 0.366096,-0.06895 0.07488,-0.01411 0.124321,0.01966 0.04944,0.03377 0.10201,0.08417 0.04268,0.04365 0.269612,0.242147 0.233682,0.188605 0.574074,0.486344 0.347146,0.287852 0.756751,0.632864 0.408038,0.336691 0.817643,0.681703 0.408038,0.336691 0.756751,0.632864 0.347145,0.287851 0.572506,0.478024 0.233682,0.188605 0.274799,0.223938 0.03955,0.02701 0.11033,0.08261 0.0791,0.05403 0.129022,0.04462 0.07488,-0.0141 0.05029,-0.190399 -0.02194,-0.116485 -0.08306,-0.44098 -0.05437,-0.334381 -0.142127,-0.800322 -0.08101,-0.475828 -0.184439,-1.024972 -0.103432,-0.549144 -0.211565,-1.123249 -0.03966,-0.16484 -0.231146,-0.266623 -0.191481,-0.101783 -0.337629,-0.100102 -0.146148,0.0017 -0.270469,-0.01798 -0.12432,-0.01966 -0.13529,-0.07791 -0.0094,-0.04992 0.103947,-0.0885 0.111784,-0.0469 0.219949,-0.06727 0.0832,-0.01567 0.158087,-0.02978 0.0832,-0.01567 0.158087,-0.02978 0.0832,-0.01567 0.158087,-0.02978 0.199688,-0.03761 0.316174,-0.05955 0.114917,-0.03026 0.246476,-0.06366 0.139879,-0.03496 0.38949,-0.08198 0.108165,-0.02037 0.179429,-0.0079 0.0697,0.0041 0.0791,0.05402 0.02194,0.116485 -0.243229,0.218124 -0.296883,0.116227 -0.379489,0.226557 -0.08261,0.11033 -0.06007,0.321473 0.0078,0.0416 0.0528,0.326061 0.05328,0.282893 0.134775,0.715552 0.08149,0.432659 0.167201,0.933448 0.09403,0.499222 0.188058,0.998444 0.09246,0.490901 0.166118,0.881958 0.03761,0.199689 0.07728,0.364529 0.04642,0.154953 0.07668,0.269871 0.02869,0.106597 0.03966,0.16484 0.02507,0.133126 -0.0269,0.177377 -0.04209,0.05101 -0.108649,0.06354 z"
         style="font-style:normal;font-variant:normal;font-weight:normal;font-stretch:normal;font-family:'EB Garamond';-inkscape-font-specification:'EB Garamond';letter-spacing:0.26458332px;word-spacing:0.5291667px;fill:#000000;stroke-width:0.02645833"
         id="path3993"
         inkscape:connector-curvature="0" />
      <path
         d="m 101.92178,92.466048 q -0.11002,-0.0033 -0.17697,-0.03066 -0.0672,-0.01893 -0.0657,-0.06971 0.002,-0.05924 0.0705,-0.09108 0.0687,-0.03184 0.21333,-0.05296 0.32335,-0.0497 0.49688,-0.188546 0.17378,-0.14731 0.18282,-0.451976 l 0.0974,-3.283621 q 0.0115,-0.389296 6.6e-4,-0.592909 -0.0106,-0.212075 -0.0505,-0.29796 -0.0313,-0.08563 -0.0988,-0.09611 -0.11773,-0.0289 -0.25313,-0.03292 -0.1267,-0.01223 -0.34673,-0.01876 l -0.39776,-0.0118 q -0.20311,-0.006 -0.40873,0.07258 -0.19691,0.07039 -0.29503,0.236887 -0.0266,0.04156 -0.0884,0.124433 -0.0615,0.07441 -0.13096,0.13164 -0.0695,0.05723 -0.13717,0.05522 -0.0339,-0.001 -0.0498,-0.03536 -0.007,-0.0341 -0.006,-0.07642 0.003,-0.08463 0.0473,-0.168003 0.12576,-0.24191 0.18207,-0.426588 0.065,-0.19289 0.10665,-0.454236 0.0212,-0.143368 0.0643,-0.167501 0.0515,-0.02388 0.0854,-0.02288 0.0339,0.001 0.0985,0.104569 0.0731,0.103815 0.10499,0.172523 0.0483,0.08614 0.22474,0.133724 0.18493,0.04784 0.36265,0.05311 l 2.97895,0.08839 q 0.29621,0.0088 0.48339,-0.01954 0.18719,-0.02833 0.32436,-0.08355 0.10306,-0.04776 0.16406,-0.105247 0.0695,-0.05723 0.17102,-0.05422 0.0254,7.54e-4 0.0403,0.06896 0.0152,0.05974 0.0132,0.127447 -0.001,0.04231 -0.0204,0.117979 -0.0107,0.07592 -0.0204,0.117979 -0.0299,0.151579 -0.0573,0.218529 -0.0189,0.0672 -0.0289,0.117728 -0.01,0.05053 -0.0132,0.160545 l -0.003,0.101555 q -0.002,0.07617 -0.0391,0.176718 -0.0366,0.09209 -0.10431,0.09008 -0.0592,-0.0018 -0.0903,-0.09586 -0.0311,-0.0941 -0.0602,-0.255897 -0.0286,-0.178726 -0.19483,-0.285304 -0.16599,-0.115041 -0.57221,-0.127094 l -0.85476,-0.02536 q -0.18619,-0.0055 -0.28078,0.04249 -0.0946,0.04802 -0.12602,0.250373 -0.0314,0.202357 -0.0452,0.667819 l -0.0987,3.325936 q -0.009,0.304666 0.16416,0.462272 0.17345,0.149144 0.48482,0.217675 0.14312,0.02966 0.20982,0.06552 0.0667,0.03586 0.0649,0.0951 -0.002,0.05078 -0.0697,0.0657 -0.0685,0.02338 -0.17848,0.02011 -0.2285,-0.0068 -0.38033,-0.02823 -0.14362,-0.01273 -0.27877,-0.02521 -0.13516,-0.01248 -0.32981,-0.01826 -0.21157,-0.0063 -0.37262,-0.0026 -0.15258,0.0039 -0.32209,0.0074 -0.1613,0.01215 -0.3898,0.0054 z"
         style="font-style:normal;font-variant:normal;font-weight:normal;font-stretch:normal;font-family:'EB Garamond';-inkscape-font-specification:'EB Garamond';letter-spacing:0.26458332px;word-spacing:0.5291667px;fill:#000000;stroke-width:0.02645833"
         id="path3995"
         inkscape:connector-curvature="0" />
      <path
         d="m 111.51366,94.102601 q -0.52931,-0.179133 -0.94807,-0.526438 -0.41605,-0.355324 -0.66826,-0.825027 -0.24949,-0.477724 -0.30318,-1.032196 -0.051,-0.562492 0.14988,-1.155961 0.18456,-0.545349 0.52927,-0.982869 0.34743,-0.445539 0.82527,-0.721804 0.47785,-0.276264 1.06983,-0.335135 0.59198,-0.05887 1.25763,0.166402 0.52931,0.179133 0.94536,0.534457 0.41876,0.347305 0.66825,0.825028 0.25221,0.469703 0.30318,1.032195 0.0537,0.554473 -0.14716,1.147941 -0.18184,0.53733 -0.52927,0.982869 -0.34743,0.44554 -0.82527,0.721804 -0.47785,0.276265 -1.06983,0.335136 -0.59198,0.05887 -1.25763,-0.166402 z m 0.22887,-0.280082 q 0.61753,0.208988 1.11339,0.09077 0.49858,-0.126234 0.85649,-0.523532 0.36865,-0.402603 0.58036,-1.028151 0.18727,-0.553369 0.22452,-1.086006 0.0372,-0.532637 -0.0945,-0.988402 -0.12105,-0.461071 -0.42742,-0.797151 -0.30637,-0.33608 -0.81162,-0.507071 -0.60148,-0.20356 -1.09735,-0.08535 -0.49586,0.118215 -0.8618,0.512798 -0.36322,0.386564 -0.57492,1.012112 -0.18999,0.561389 -0.23526,1.091312 -0.0372,0.532636 0.0838,0.993707 0.12907,0.463785 0.43272,0.807885 0.30637,0.33608 0.81162,0.507071 z"
         style="font-style:normal;font-variant:normal;font-weight:normal;font-stretch:normal;font-family:'EB Garamond';-inkscape-font-specification:'EB Garamond';letter-spacing:0.26458332px;word-spacing:0.5291667px;fill:#000000;stroke-width:0.02645833"
         id="path3997"
         inkscape:connector-curvature="0" />
      <path
         d="m 115.27997,95.532565 q -0.0956,-0.05448 -0.14193,-0.110073 -0.0505,-0.04824 -0.0253,-0.09238 0.0503,-0.08828 0.31821,0.0059 0.3089,0.107745 0.47894,0.0487 0.1774,-0.05485 0.33246,-0.327054 l 1.76843,-3.104591 q 0.18858,-0.331058 0.20087,-0.55791 0.0196,-0.222661 -0.23058,-0.433402 -0.11249,-0.09331 -0.15039,-0.16362 -0.0379,-0.07031 -0.009,-0.121807 0.0251,-0.04414 0.0924,-0.02533 0.0714,0.01145 0.16707,0.06593 0.2722,0.155052 0.45193,0.267174 0.18709,0.116313 0.36682,0.228435 0.18392,0.104765 0.43405,0.247246 0.21335,0.121527 0.45613,0.259817 0.24277,0.13829 0.47084,0.268199 0.23542,0.1341 0.43293,0.19789 0.20488,0.06798 0.3373,0.143412 0.0368,0.02095 0.0725,0.06081 0.0358,0.03986 0.0222,0.08083 -0.0314,0.08931 -0.11622,0.255348 -0.0806,0.158685 -0.16446,0.305822 -0.0765,0.151327 -0.10579,0.202825 -0.088,0.154494 -0.15421,0.116779 -0.0368,-0.02095 -0.0536,-0.05979 -0.0127,-0.04619 -0.006,-0.09136 0.0418,-0.141828 0.048,-0.255254 0.0103,-0.120783 -0.0118,-0.201615 -0.0359,-0.176378 -0.14006,-0.284403 -0.0999,-0.115381 -0.2397,-0.195003 l -0.93432,-0.532207 q -0.16921,-0.09638 -0.26885,-0.007 -0.0996,0.0894 -0.19081,0.232346 -0.087,0.13559 -0.20432,0.341581 -0.11314,0.198635 -0.2221,0.389914 -0.10477,0.183921 -0.21372,0.375199 -0.10896,0.191278 -0.17703,0.327892 -0.0335,0.05886 -0.0555,0.114543 -0.0146,0.05988 0.0369,0.08921 0.23542,0.134099 0.48239,0.265032 0.25116,0.123577 0.38358,0.199008 0.16185,0.09219 0.32985,0.07096 0.168,-0.02123 0.29073,-0.116964 0.0315,-0.02105 0.10076,-0.04004 0.0735,-0.02635 0.10291,-0.0096 0.0294,0.01676 0.0453,0.0745 0.02,0.05038 -0.0167,0.09769 -0.0786,0.120876 -0.14044,0.212324 -0.0618,0.09145 -0.11212,0.179731 -0.0629,0.110352 -0.12255,0.232253 -0.0555,0.114543 -0.14034,0.280584 -0.0293,0.0515 -0.065,0.0799 -0.0283,0.03259 -0.0725,0.0074 -0.0736,-0.04191 -0.08,-0.133261 9.3e-4,-0.08716 0.007,-0.13233 0.0449,-0.198542 -0.0246,-0.316065 -0.0653,-0.12488 -0.15356,-0.175168 -0.0956,-0.05448 -0.19128,-0.108955 -0.0841,-0.05765 -0.17237,-0.107932 -0.12507,-0.07124 -0.24278,-0.13829 -0.11771,-0.06705 -0.2438,-0.119386 -0.0778,-0.03455 -0.1544,-0.01974 -0.0724,0.0074 -0.12693,0.103089 -0.19277,0.338415 -0.39392,0.691544 -0.1896,0.349963 -0.38441,0.726186 -0.11939,0.243801 -0.10337,0.438059 0.0234,0.198449 0.26624,0.404999 0.1125,0.09331 0.15459,0.156263 0.0421,0.06295 0.0128,0.11445 -0.0251,0.04414 -0.0924,0.02533 -0.0714,-0.01145 -0.16707,-0.06593 -0.19863,-0.113146 -0.30061,-0.190719 -0.0946,-0.07338 -0.1787,-0.131026 -0.0725,-0.06081 -0.21233,-0.140432 -0.17656,-0.100575 -0.32472,-0.165483 -0.13662,-0.06807 -0.28478,-0.132982 -0.14816,-0.06491 -0.34679,-0.178054 z"
         style="font-style:normal;font-variant:normal;font-weight:normal;font-stretch:normal;font-family:'EB Garamond';-inkscape-font-specification:'EB Garamond';letter-spacing:0.26458332px;word-spacing:0.5291667px;fill:#000000;stroke-width:0.02645833"
         id="path3999"
         inkscape:connector-curvature="0" />
      <path
         d="m 121.23611,99.438051 q -0.0796,-0.07603 -0.11101,-0.141187 -0.0373,-0.05903 -0.002,-0.09577 0.0702,-0.07346 0.3073,0.08281 0.27357,0.179395 0.47735,0.18672 0.20377,0.0073 0.41432,-0.213063 l 2.63189,-2.75486 q 0.21055,-0.220389 0.20645,-0.399948 0.002,-0.173709 -0.18967,-0.438811 -0.0865,-0.117793 -0.10625,-0.195191 -0.0197,-0.0774 0.0212,-0.120253 0.0351,-0.03673 0.0958,-0.0022 0.0665,0.02842 0.1461,0.104456 0.23264,0.222249 0.38596,0.380435 0.15944,0.164036 0.30664,0.316374 0.15917,0.152064 0.37344,0.356767 0.20202,0.193005 0.42241,0.403556 0.23236,0.210278 0.42214,0.391586 0.21399,0.192732 0.3548,0.327251 0.15277,0.134246 0.17726,0.15764 0.0306,0.02924 0.0556,0.07658 0.025,0.04734 0.002,0.08379 -0.13315,0.200657 -0.2663,0.401314 -0.1273,0.194534 -0.24428,0.316973 -0.0526,0.0551 -0.10079,0.04422 -0.042,-0.005 -0.0726,-0.03427 -0.0306,-0.02924 -0.0312,-0.05318 0.005,-0.03006 0.0223,-0.07237 0.0688,-0.133316 0.12594,-0.254388 0.063,-0.127193 0.061,-0.210987 0.008,-0.179832 -0.067,-0.309868 -0.069,-0.136159 -0.1853,-0.247283 l -0.80197,-0.766173 q -0.049,-0.04679 -0.18732,-0.07357 -0.13834,-0.02678 -0.22023,0.05892 l -1.23991,1.297846 q -0.0526,0.0551 -0.063,0.127193 0.002,0.07182 0.0445,0.112764 l 0.60607,0.579016 q 0.17753,0.169611 0.30336,0.172727 0.13167,-0.003 0.33829,-0.133479 0.1654,-0.09959 0.23886,-0.02941 0.0245,0.0234 0.0256,0.07128 0.007,0.05373 -0.0396,0.102706 -0.0234,0.02449 -0.1114,0.104346 -0.0819,0.08571 -0.17573,0.171687 -0.0939,0.08598 -0.14064,0.134955 -0.0585,0.06122 -0.15791,0.165292 -0.0875,0.103799 -0.17519,0.195628 -0.0816,0.09768 -0.105,0.122165 -0.0409,0.04285 -0.0824,0.06177 -0.0354,0.0248 -0.0721,-0.01033 -0.0918,-0.08773 0.0464,-0.33042 0.0978,-0.175896 0.1009,-0.301723 0.003,-0.125827 -0.11932,-0.2428 l -0.56934,-0.543924 q -0.10407,-0.09943 -0.18841,-0.121455 -0.0724,-0.0223 -0.1718,0.08177 l -1.12294,1.175407 q -0.22225,0.232633 -0.21203,0.418038 0.0161,0.17929 0.22422,0.37814 l 0.45302,0.4328 q 0.1959,0.18716 0.34201,0.29161 0.15807,0.10419 0.31451,0.13654 0.16229,0.0262 0.34102,-0.0138 0.18486,-0.0342 0.45827,-0.12424 0.0535,-0.0192 0.10134,-0.0203 0.0479,-0.001 0.0726,0.0343 0.0248,0.0354 0.0197,0.0774 8.2e-4,0.0359 -0.0343,0.0726 -0.0526,0.0551 -0.21777,0.16665 -0.15928,0.10544 -0.34862,0.20558 -0.18322,0.10598 -0.30183,0.1566 -0.0593,0.0253 -0.10692,0.0384 -0.0415,0.0189 -0.0782,-0.0162 -0.29385,-0.28073 -0.539,-0.52665 -0.24515,-0.24592 -0.46581,-0.46844 -0.22066,-0.22252 -0.4352,-0.43919 -0.20842,-0.21083 -0.44105,-0.43308 -0.13469,-0.128666 -0.23849,-0.216123 -0.10964,-0.08133 -0.21957,-0.174639 -0.11576,-0.08718 -0.28106,-0.245097 z"
         style="font-style:normal;font-variant:normal;font-weight:normal;font-stretch:normal;font-family:'EB Garamond';-inkscape-font-specification:'EB Garamond';letter-spacing:0.26458332px;word-spacing:0.5291667px;fill:#000000;stroke-width:0.02645833"
         id="path4001"
         inkscape:connector-curvature="0" />
      <path
         d="m 127.68328,107.2022 q -0.0435,-0.0626 -0.0695,-0.32279 -0.0213,-0.25325 0.0923,-0.57952 0.0155,-0.052 0.0879,-0.31874 0.0773,-0.25982 0.18003,-0.66104 0.11455,-0.3991 0.24185,-0.8689 0.1273,-0.4698 0.2546,-0.9396 0.1273,-0.4698 0.23007,-0.87102 0.10972,-0.40605 0.17733,-0.67978 0.0794,-0.27161 0.097,-0.33535 0.0288,-0.0922 0.0255,-0.14141 0.004,-0.0541 -0.0156,-0.0819 -0.0241,-0.0348 -0.0894,-0.0101 -0.0583,0.0199 -0.10007,0.0489 -0.34558,0.22968 -0.79549,0.53181 -0.4499,0.30212 -0.92762,0.62357 -0.47771,0.32144 -0.90888,0.62086 -0.18776,0.13039 -0.28493,0.33187 -0.0923,0.20844 0.0377,0.49955 0.0612,0.13271 0.0721,0.20766 0.0108,0.075 -0.0379,0.10876 -0.0417,0.029 -0.0943,-0.017 -0.0595,-0.0411 -0.12228,-0.13155 -0.1304,-0.18776 -0.1841,-0.29478 -0.0558,-0.0952 -0.102,-0.17656 -0.0413,-0.0744 -0.13309,-0.20651 -0.0869,-0.12517 -0.14218,-0.18989 -0.0553,-0.0647 -0.12498,-0.15029 -0.0767,-0.0807 -0.20709,-0.26851 -0.0628,-0.0904 -0.0806,-0.16052 -0.0247,-0.0653 0.017,-0.0943 0.0487,-0.0338 0.11513,0.003 0.0665,0.0363 0.17637,0.13522 0.19568,0.16304 0.4045,0.15203 0.21578,-0.0158 0.44585,-0.14469 0.28358,-0.1557 0.73406,-0.42731 0.45744,-0.27643 1.0074,-0.62743 0.55692,-0.35583 1.12717,-0.75183 0.36857,-0.25596 0.3933,-0.56176 0.0296,-0.29884 -0.0856,-0.672434 -0.005,-0.03748 -0.0313,-0.163812 -0.0141,-0.12421 0.0485,-0.167675 0.0626,-0.04346 0.11996,0.0095 0.0643,0.0481 0.0885,0.08287 0.1331,0.206503 0.21307,0.336508 0.0869,0.125173 0.14759,0.227363 0.0606,0.10219 0.1358,0.22524 0.0821,0.11822 0.21249,0.30599 0.0435,0.0626 0.0328,0.1215 -0.0106,0.0589 -0.0352,0.1275 -0.0224,0.0568 -0.11088,0.34501 -0.0767,0.29034 -0.2094,0.72266 -0.12092,0.43445 -0.26851,0.94926 -0.14063,0.50998 -0.28821,1.02479 -0.14063,0.50998 -0.26851,0.94926 -0.12092,0.43445 -0.20244,0.71783 -0.0767,0.29034 -0.0922,0.34231 -0.008,0.0471 -0.0303,0.13445 -0.017,0.0943 0.012,0.13599 0.0435,0.0626 0.19434,-0.0319 0.0974,-0.0676 0.36857,-0.25596 0.283,-0.18622 0.67244,-0.45666 0.40122,-0.26832 0.8602,-0.58706 0.45898,-0.31874 0.93883,-0.65197 0.13425,-0.10354 0.14893,-0.31989 0.0147,-0.21636 -0.0465,-0.34907 -0.0612,-0.13271 -0.0941,-0.25422 -0.0328,-0.1215 0.0158,-0.15531 0.0417,-0.029 0.12325,0.0587 0.0885,0.0829 0.15125,0.17327 0.0483,0.0695 0.0918,0.13213 0.0483,0.0695 0.0918,0.13213 0.0483,0.0696 0.0918,0.13213 0.11591,0.16691 0.18352,0.26427 0.0746,0.0925 0.15879,0.19896 0.089,0.1134 0.23394,0.32203 0.0628,0.0904 0.0805,0.16052 0.0247,0.0653 -0.017,0.0943 -0.0974,0.0676 -0.29845,-0.1329 -0.22737,-0.2235 -0.36182,-0.25383 -0.13445,-0.0303 -0.31796,0.0765 -0.0348,0.0241 -0.27605,0.18139 -0.23644,0.1642 -0.59806,0.41532 -0.36163,0.25113 -0.78371,0.53394 -0.41726,0.28976 -0.83451,0.57952 -0.4103,0.28494 -0.73715,0.51192 -0.1669,0.1159 -0.30116,0.21944 -0.12247,0.10567 -0.215,0.18024 -0.0856,0.0697 -0.13426,0.10354 -0.11126,0.0773 -0.17289,0.0479 -0.0637,-0.0176 -0.10238,-0.0732 z"
         style="font-style:normal;font-variant:normal;font-weight:normal;font-stretch:normal;font-family:'EB Garamond';-inkscape-font-specification:'EB Garamond';letter-spacing:0.26458332px;word-spacing:0.5291667px;fill:#000000;stroke-width:0.02645833"
         id="path4003"
         inkscape:connector-curvature="0" />
      <path
         d="m 128.63908,108.81463 q -0.0433,-0.10118 -0.0466,-0.17345 -0.0111,-0.0689 0.0356,-0.0889 0.0934,-0.04 0.25006,0.19688 0.1811,0.27244 0.36561,0.35923 0.18451,0.0868 0.46471,-0.0332 l 3.50256,-1.49941 q 0.2802,-0.11995 0.34697,-0.28668 0.0701,-0.15895 -0.002,-0.47804 -0.0333,-0.14232 -0.021,-0.22125 0.0123,-0.0789 0.0668,-0.10225 0.0467,-0.02 0.0889,0.0356 0.05,0.0523 0.0933,0.15346 0.12662,0.29577 0.20547,0.50147 0.0822,0.21349 0.1577,0.41141 0.0866,0.20237 0.20325,0.47479 0.10996,0.25685 0.22991,0.53706 0.13107,0.28465 0.23436,0.52594 0.12107,0.2613 0.19771,0.44032 0.0877,0.18347 0.10108,0.21461 0.0167,0.0389 0.0211,0.0923 0.004,0.0534 -0.0312,0.0778 -0.20127,0.13221 -0.40255,0.26443 -0.19349,0.12888 -0.34916,0.19552 -0.07,0.03 -0.11007,10e-4 -0.0367,-0.0211 -0.0533,-0.06 -0.0167,-0.0389 -0.008,-0.0611 0.0167,-0.0256 0.0489,-0.0578 0.11566,-0.0956 0.21575,-0.18446 0.10787,-0.0922 0.13903,-0.17004 0.0779,-0.16228 0.0602,-0.31126 -0.01,-0.15231 -0.0733,-0.30019 l -0.43649,-1.01963 q -0.0267,-0.0623 -0.14336,-0.14125 -0.1167,-0.079 -0.22566,-0.0323 l -1.6501,0.70638 q -0.0701,0.03 -0.10787,0.0922 -0.0267,0.0667 -0.003,0.12118 l 0.32987,0.77056 q 0.0966,0.22572 0.21112,0.27802 0.12227,0.049 0.36353,0.0101 0.19123,-0.0266 0.23121,0.0668 0.0133,0.0311 -0.004,0.0756 -0.0145,0.0522 -0.0767,0.0789 -0.0311,0.0133 -0.14343,0.0522 -0.10897,0.0466 -0.22905,0.0889 -0.12009,0.0422 -0.18235,0.0688 -0.0778,0.0333 -0.21016,0.09 -0.1212,0.0611 -0.23795,0.11108 -0.11342,0.0578 -0.14456,0.0711 -0.0545,0.0233 -0.10006,0.0244 -0.0422,0.009 -0.0622,-0.0378 -0.05,-0.11675 0.17243,-0.28564 0.15903,-0.12334 0.21133,-0.23782 0.0523,-0.11449 -0.0143,-0.27016 l -0.30987,-0.72386 q -0.0566,-0.13232 -0.12555,-0.18571 -0.0578,-0.0489 -0.19011,0.008 l -1.49442,0.63975 q -0.29578,0.12662 -0.35922,0.30113 -0.0557,0.17119 0.0576,0.43582 l 0.24657,0.57598 q 0.10662,0.24907 0.19994,0.40253 0.10444,0.1579 0.23559,0.24912 0.13893,0.0879 0.31901,0.12131 0.18342,0.0412 0.47024,0.0658 0.0567,0.003 0.10116,0.0212 0.0445,0.0178 0.0533,0.06 0.009,0.0423 -0.0123,0.0789 -0.0134,0.0333 -0.0601,0.0533 -0.07,0.03 -0.26573,0.0677 -0.1879,0.0344 -0.40136,0.0521 -0.21012,0.0255 -0.33908,0.0254 -0.0645,-2e-5 -0.1134,-0.007 -0.0456,0.001 -0.0656,-0.0456 -0.15994,-0.37361 -0.28877,-0.69606 -0.12883,-0.32245 -0.24433,-0.61377 -0.1155,-0.29132 -0.22767,-0.57486 -0.10883,-0.27575 -0.23545,-0.57152 -0.0733,-0.17124 -0.1344,-0.29244 -0.0689,-0.11787 -0.13331,-0.24686 -0.0722,-0.12566 -0.16217,-0.33581 z"
         style="font-style:normal;font-variant:normal;font-weight:normal;font-stretch:normal;font-family:'EB Garamond';-inkscape-font-specification:'EB Garamond';letter-spacing:0.26458332px;word-spacing:0.5291667px;fill:#000000;stroke-width:0.02645833"
         id="path4005"
         inkscape:connector-curvature="0" />
      <path
         d="m 131.44467,118.23636 q -0.05,-0.23174 -0.0532,-0.44758 -0.0115,-0.21404 0.0503,-0.40927 0.0618,-0.19522 0.2035,-0.38168 0.20545,-0.25219 0.38963,-0.48247 0.19247,-0.23206 0.44579,-0.50323 0.2551,-0.2629 0.6561,-0.65254 0.18013,-0.16877 0.24602,-0.4255 0.0518,-0.20172 0.0456,-0.39094 0.004,-0.18273 -0.0128,-0.30038 -0.006,-0.068 -0.0628,-0.0904 -0.055,-0.0141 -0.1295,0.002 l -1.45664,0.31418 q -0.26484,0.0571 -0.43669,0.22411 -0.16358,0.1652 -0.15547,0.48392 0.006,0.14606 -0.0133,0.21941 -0.0188,0.0734 -0.0768,0.0859 -0.0497,0.0107 -0.0805,-0.0519 -0.0391,-0.0609 -0.0623,-0.16845 -0.0482,-0.22346 -0.0584,-0.35118 -0.008,-0.11944 -0.0216,-0.22054 -0.003,-0.0946 -0.037,-0.25186 -0.0446,-0.20691 -0.0969,-0.36886 -0.0422,-0.15547 -0.0944,-0.31743 -0.0505,-0.15368 -0.0987,-0.37714 -0.0232,-0.10759 -0.0127,-0.17916 0.002,-0.0698 0.0519,-0.0805 0.0993,-0.0214 0.20789,0.24099 0.12576,0.302 0.28853,0.41414 0.16456,0.12041 0.47078,0.0544 l 3.52572,-0.76046 q 0.3145,-0.0678 0.46461,-0.13486 0.16017,-0.0605 0.20318,-0.1824 0.0448,-0.1136 0.0179,-0.35897 -0.0138,-0.14427 0.0133,-0.2194 0.0354,-0.0769 0.0933,-0.0894 0.0497,-0.0107 0.0805,0.0519 0.0391,0.0609 0.0623,0.16845 0.0482,0.22346 0.0714,0.33105 0.025,0.11587 0.0381,0.21697 0.0214,0.0993 0.0571,0.26484 0.0339,0.15725 0.069,0.27961 0.0433,0.12058 0.0837,0.26777 0.0422,0.15546 0.094,0.39548 0.19636,0.91039 -0.0412,1.45533 -0.2358,0.55322 -0.91446,0.6996 -0.37243,0.0803 -0.67768,-0.01 -0.29698,-0.0919 -0.52726,-0.27604 -0.23027,-0.18419 -0.39613,-0.39093 -0.0154,-0.0313 -0.0485,-0.0242 -0.023,0.0136 -0.0591,0.0474 -0.33365,0.34047 -0.63127,0.64718 -0.29584,0.31499 -0.5662,0.66779 -0.27036,0.3528 -0.54234,0.81855 -0.14394,0.25624 -0.13712,0.48863 0.007,0.23239 0.0693,0.52206 0.0268,0.12414 -0.0643,0.14378 -0.12414,0.0268 -0.20886,-0.0849 -0.093,-0.10987 -0.14345,-0.26355 -0.0588,-0.15189 -0.082,-0.25948 z m 2.22908,-3.72015 q 0.0821,0.38071 0.31483,0.61635 0.2345,0.2439 0.54803,0.33218 0.31531,0.0966 0.62981,0.0287 0.33933,-0.0732 0.60109,-0.22492 0.26354,-0.14346 0.37195,-0.444 0.11846,-0.29406 0.006,-0.81547 -0.0571,-0.26484 -0.24878,-0.31011 -0.18338,-0.0471 -0.61732,0.0292 -0.20869,0.0363 -0.56636,0.10483 -0.34761,0.075 -0.84419,0.18209 -0.2069,0.0446 -0.22329,0.16942 -0.0164,0.12479 0.0282,0.3317 z"
         style="font-style:normal;font-variant:normal;font-weight:normal;font-stretch:normal;font-family:'EB Garamond';-inkscape-font-specification:'EB Garamond';letter-spacing:0.26458332px;word-spacing:0.5291667px;fill:#000000;stroke-width:0.02645833"
         id="path4007"
         inkscape:connector-curvature="0" />
      <path
         d="m 131.66685,122.43154 q 4.6e-4,-0.5842 0.20408,-1.11744 0.21209,-0.52476 0.58495,-0.93934 0.37285,-0.4061 0.87257,-0.64277 0.50819,-0.23667 1.09239,-0.23621 0.62653,5e-4 1.1682,0.24646 0.54168,0.24596 0.94774,0.67808 0.40605,0.43212 0.63421,0.9911 0.22815,0.56745 0.22765,1.20245 -1.1e-4,0.14393 -0.0342,0.38944 -0.0256,0.25398 -0.0681,0.51641 -0.0426,0.2709 -0.0935,0.48253 -0.0425,0.2201 -0.0849,0.30473 -0.017,0.0423 -0.0424,0.0508 -0.0169,0.0169 -0.0593,0.0254 -0.24556,0.0337 -0.49111,0.0589 -0.23709,0.0252 -0.40642,0.0251 -0.0593,-5e-5 -0.1185,-0.0424 -0.0508,-0.0339 -0.0507,-0.0847 6e-5,-0.0847 0.0763,-0.12694 0.0762,-0.0423 0.15245,-0.0676 0.13551,-0.0507 0.22869,-0.10988 0.10164,-0.0507 0.22025,-0.15223 0.0678,-0.0508 0.16951,-0.22 0.11019,-0.16078 0.19508,-0.44011 0.0849,-0.27933 0.0852,-0.68573 3.9e-4,-0.49107 -0.21096,-0.89764 -0.20288,-0.40656 -0.56671,-0.70318 -0.35537,-0.28815 -0.81244,-0.44937 -0.45708,-0.15277 -0.95662,-0.15316 -0.60113,-4.8e-4 -1.07541,0.18542 -0.47428,0.18589 -0.80473,0.49889 -0.33045,0.31301 -0.50009,0.71081 -0.16965,0.3978 -0.16999,0.82113 -3.8e-4,0.49107 0.11797,0.71976 0.11834,0.23716 0.19448,0.31342 0.0931,0.0932 0.26234,0.16954 0.16926,0.0848 0.3894,0.085 0.0762,6e-5 0.16086,1.2e-4 0.0847,0.009 0.16933,0.009 0.0847,0.009 0.16086,0.009 0.0931,7e-5 0.15241,-0.008 0.0677,-0.008 0.10162,-0.0338 0.0932,-0.0677 0.15259,-0.23695 0.0594,-0.16929 0.0849,-0.3386 0.0255,-0.16931 0.0256,-0.25398 3e-5,-0.0339 0.0424,-0.10157 0.0424,-0.0677 0.10165,-0.0677 0.0677,5e-5 0.10155,0.0678 0.0423,0.0678 0.0423,0.10164 -1.7e-4,0.21166 -0.009,0.36406 -0.009,0.15239 -0.0172,0.31325 -0.009,0.16086 -0.009,0.38946 -1.7e-4,0.22013 0.0166,0.37255 0.0168,0.15241 0.0166,0.38101 -2e-5,0.0339 -0.0255,0.10158 -0.0255,0.0762 -0.11012,0.0761 -0.0593,-4e-5 -0.10154,-0.0763 -0.0423,-0.0678 -0.0507,-0.10164 -0.0507,-0.1863 -0.1522,-0.26258 -0.0931,-0.0678 -0.26239,-0.0934 -0.18625,-0.0255 -0.33017,-0.0341 -0.14393,-0.009 -0.3048,-0.009 l -0.2286,-1.8e-4 q -0.0423,-3e-5 -0.0677,0.0169 -0.0254,0.0169 -0.0678,0.0338 -0.0424,0.0254 -0.0763,0.0677 -0.0339,0.0423 -0.0678,0.0423 -0.0339,-2e-5 -0.0931,-0.017 -0.0508,-0.009 -0.0677,-0.10166 -0.008,-0.0593 -0.10141,-0.23714 -0.0845,-0.1694 -0.19439,-0.43196 -0.10986,-0.26255 -0.18579,-0.60128 -0.0844,-0.33873 -0.0841,-0.74513 z"
         style="font-style:normal;font-variant:normal;font-weight:normal;font-stretch:normal;font-family:'EB Garamond';-inkscape-font-specification:'EB Garamond';letter-spacing:0.26458332px;word-spacing:0.5291667px;fill:#000000;stroke-width:0.02645833"
         id="path4009"
         inkscape:connector-curvature="0" />
      <path
         d="m 131.35724,127.05917 q 0.0213,-0.10799 0.0593,-0.16953 0.0297,-0.0632 0.0796,-0.0533 0.0581,0.0115 0.0783,0.0845 0.0201,0.073 0.0172,0.21914 -0.004,0.32712 0.12926,0.52602 0.14168,0.20053 0.44072,0.25951 l 1.22938,0.24247 q 0.16613,0.0328 0.37521,-0.0209 0.21574,-0.0438 0.28044,-0.0655 l 1.78656,-0.65733 q 0.11114,-0.0385 0.31016,-0.12868 0.20732,-0.0886 0.39463,-0.20695 0.18568,-0.11009 0.25506,-0.24311 0.0677,-0.12471 0.12403,-0.19128 0.0546,-0.0583 0.11278,-0.0468 0.0498,0.01 0.0533,0.0796 0.0118,0.0714 -0.009,0.17935 -0.0377,0.19105 -0.10345,0.43698 -0.0574,0.24756 -0.11315,0.52998 -0.0377,0.19106 -0.0621,0.35883 -0.0261,0.17608 -0.0523,0.30898 -0.0213,0.10799 -0.0593,0.16953 -0.0297,0.0632 -0.0796,0.0533 -0.0581,-0.0115 -0.0866,-0.0861 -0.0201,-0.073 -0.0255,-0.22077 -0.0103,-0.12285 -0.0371,-0.2058 -0.0268,-0.0829 -0.11817,-0.10097 -0.10798,-0.0213 -0.32033,0.049 l -1.56286,0.4857 q -0.34841,0.10388 -0.36152,0.17033 -0.01,0.0498 0.0452,0.1211 0.0633,0.0729 0.21643,0.21528 0.25305,0.24839 0.48938,0.45033 0.23632,0.20195 0.56916,0.48334 0.12483,0.11092 0.21796,0.1638 0.10143,0.0545 0.17619,0.0693 0.15783,0.0311 0.23891,-0.0737 0.0795,-0.0965 0.11899,-0.20953 0.033,-0.0798 0.0942,-0.17128 0.0679,-0.0815 0.12601,-0.0701 0.0498,0.01 0.0534,0.0796 0.0118,0.0714 -0.009,0.17936 -0.0377,0.19105 -0.0706,0.31401 -0.0246,0.1246 -0.0606,0.30735 -0.0508,0.2575 -0.0884,0.49173 -0.0292,0.23586 -0.0571,0.37708 -0.0213,0.10798 -0.0593,0.16952 -0.0297,0.0632 -0.0796,0.0533 -0.0582,-0.0115 -0.0818,-0.15421 -0.0236,-0.14273 -0.0391,-0.327 -0.0156,-0.22744 -0.1688,-0.41301 -0.14659,-0.17561 -0.44293,-0.46706 -0.22474,-0.21692 -0.37625,-0.36762 -0.15314,-0.14239 -0.283,-0.27156 -0.1315,-0.12086 -0.27797,-0.25331 -0.13817,-0.1308 -0.3429,-0.31789 -0.15315,-0.14239 -0.25294,-0.20522 -0.0998,-0.0628 -0.19784,-0.0908 -0.0897,-0.0263 -0.25587,-0.0591 l -1.26261,-0.24902 q -0.28242,-0.0557 -0.49957,0.0827 -0.20885,0.14003 -0.32761,0.43591 -0.0528,0.1363 -0.0991,0.1962 -0.0463,0.0599 -0.10448,0.0484 -0.0498,-0.01 -0.0533,-0.0796 -0.0118,-0.0714 0.009,-0.17935 0.0442,-0.22428 0.0903,-0.37052 0.0362,-0.13958 0.0707,-0.27085 0.0345,-0.13127 0.0722,-0.32232 0.041,-0.20766 0.0638,-0.36713 0.0212,-0.15116 0.0456,-0.31893 0.0145,-0.1611 0.0588,-0.38538 z"
         style="font-style:normal;font-variant:normal;font-weight:normal;font-stretch:normal;font-family:'EB Garamond';-inkscape-font-specification:'EB Garamond';letter-spacing:0.26458332px;word-spacing:0.5291667px;fill:#000000;stroke-width:0.02645833"
         id="path4011"
         inkscape:connector-curvature="0" />
    </g>
    <circle
       style="opacity:1;fill:none;fill-opacity:1;fill-rule:nonzero;stroke:none;stroke-width:0.03599026;stroke-linecap:square;stroke-linejoin:bevel;stroke-miterlimit:4;stroke-dasharray:none;stroke-dashoffset:0;stroke-opacity:1"
       id="path3910"
       cx="122.17295"
       cy="-102.05357"
       r="29.732004"
       transform="rotate(90)" />
    <circle
       style="opacity:1;fill:none;fill-opacity:1;fill-rule:nonzero;stroke:none;stroke-width:0.04294636;stroke-linecap:square;stroke-linejoin:bevel;stroke-miterlimit:4;stroke-dasharray:none;stroke-dashoffset:0;stroke-opacity:1"
       id="path3910-3"
       cx="-122.17295"
       cy="-102.05357"
       r="35.478527"
       transform="matrix(0,-1,-1,0,0,0)" />
    <g
       aria-label="PHILIPPINES"
       style="font-style:normal;font-variant:normal;font-weight:normal;font-stretch:normal;font-size:8.46666622px;line-height:1.25;font-family:'EB Garamond';-inkscape-font-specification:'EB Garamond';font-variant-ligatures:normal;font-variant-caps:normal;font-variant-numeric:normal;font-feature-settings:normal;text-align:center;writing-mode:lr-tb;text-anchor:middle;opacity:1;fill:#000000;fill-opacity:1;fill-rule:nonzero;stroke:none;stroke-width:0.02645833;stroke-linecap:square;stroke-linejoin:bevel;stroke-miterlimit:4;stroke-dasharray:none;stroke-dashoffset:0;stroke-opacity:1"
       id="text3932">
      <path
         d="m 73.398254,143.25205 q -0.06989,-0.085 -0.09327,-0.15348 -0.02993,-0.0631 0.0093,-0.0953 0.07849,-0.0645 0.295145,0.11908 0.250077,0.21092 0.446123,0.2361 0.201422,0.0317 0.443433,-0.1672 l 2.760224,-2.2687 q 0.294337,-0.24193 0.386803,-0.44944 0.09784,-0.20098 -0.06066,-0.48716 -0.07177,-0.12732 -0.08208,-0.20653 -0.01031,-0.0792 0.03548,-0.11684 0.03924,-0.0323 0.09533,0.009 0.06263,0.0362 0.13252,0.12123 0.145154,0.1766 0.215043,0.26163 0.07527,0.0916 0.133237,0.17544 0.06451,0.0785 0.172034,0.2093 0.107522,0.13082 0.221584,0.25626 0.125979,0.1266 0.229289,0.23896 0.109851,0.10699 0.185116,0.19856 0.612873,0.74565 0.676404,1.44964 0.06891,0.71053 -0.480522,1.16212 -0.39899,0.32794 -0.868138,0.45052 -0.462608,0.1172 -0.934177,-0.0432 -0.466192,-0.15384 -0.88015,-0.65749 -0.118274,-0.14389 -0.143542,-0.25464 -0.01335,-0.10958 0.02589,-0.14184 0.02616,-0.0215 0.08575,-0.0157 0.06496,0.0124 0.09184,0.0451 0.02688,0.0327 0.0741,0.10349 0.0526,0.0773 0.160118,0.20814 0.322564,0.39245 0.810887,0.31987 0.493699,-0.066 1.069291,-0.53913 0.523265,-0.43009 0.519141,-0.9418 0.0024,-0.51708 -0.390037,-0.99456 -0.15053,-0.18315 -0.312708,-0.24712 -0.155637,-0.0694 -0.306075,0.0543 l -3.11997,2.56439 q -0.235469,0.19354 -0.298726,0.40992 -0.06326,0.21639 0.08987,0.49603 0.07177,0.12732 0.08862,0.20115 0.01684,0.0738 -0.02894,0.11147 -0.03925,0.0323 -0.09534,-0.009 -0.06263,-0.0362 -0.13252,-0.12123 -0.145154,-0.1766 -0.212713,-0.28547 -0.06218,-0.10232 -0.120156,-0.18619 -0.04605,-0.0827 -0.1482,-0.20697 -0.134402,-0.16352 -0.255005,-0.28359 -0.108687,-0.1189 -0.22929,-0.23896 -0.115227,-0.11352 -0.260381,-0.29013 z"
         style="letter-spacing:1.58749998px"
         id="path3954"
         inkscape:connector-curvature="0" />
      <path
         d="m 77.589179,148.08524 q -0.08582,-0.0689 -0.117432,-0.13773 -0.03691,-0.0622 -0.0051,-0.10182 0.05301,-0.066 0.296073,0.064 0.287973,0.15522 0.44541,0.10791 0.164038,-0.042 0.354877,-0.27968 l 2.396091,-2.98398 q 0.185538,-0.23106 0.20694,-0.3659 0.0333,-0.13613 -0.180455,-0.38378 -0.18605,-0.21455 -0.122437,-0.29377 0.03181,-0.0396 0.09392,-0.0223 0.06742,0.0107 0.166442,0.0902 0.178247,0.14313 0.271972,0.22925 0.09373,0.0861 0.174246,0.16163 0.08582,0.0689 0.217858,0.17494 0.138636,0.11132 0.224459,0.18023 0.09772,0.0676 0.202052,0.14053 0.110929,0.0782 0.289176,0.22135 0.19145,0.15373 0.122536,0.23955 -0.03711,0.0462 -0.111126,0.0302 -0.07402,-0.016 -0.202151,-0.0863 -0.281371,-0.14992 -0.482419,-0.11591 -0.189144,0.0327 -0.342876,0.22416 l -1.044314,1.30055 q -0.03181,0.0396 -0.0094,0.0793 0.02771,0.0331 0.05411,0.0543 l 2.449243,1.9667 q 0.04621,0.0371 0.109826,-0.0421 l 1.033712,-1.28734 q 0.143129,-0.17825 0.146124,-0.37129 0.003,-0.19305 -0.210763,-0.4407 -0.09633,-0.10993 -0.127936,-0.17874 -0.03161,-0.0688 0.0055,-0.11503 0.06892,-0.0858 0.260365,0.0679 0.178247,0.14313 0.285175,0.23985 0.11353,0.10202 0.213857,0.19344 0.105628,0.0848 0.250866,0.20144 0.118831,0.0954 0.184849,0.14843 0.07132,0.0464 0.162442,0.10872 0.09112,0.0623 0.26937,0.20544 0.09242,0.0742 0.117432,0.13773 0.03691,0.0622 0.0051,0.10183 -0.06361,0.0792 -0.313276,-0.0561 -0.281372,-0.14993 -0.424305,-0.0801 -0.142932,0.0698 -0.296664,0.26128 l -2.396091,2.98398 q -0.19614,0.24426 -0.221542,0.3976 -0.0188,0.15864 0.188357,0.40099 0.179449,0.20925 0.126438,0.27527 -0.03181,0.0396 -0.100524,0.017 -0.07402,-0.016 -0.159841,-0.0849 -0.178247,-0.14313 -0.26667,-0.23585 -0.09372,-0.0861 -0.174247,-0.16164 -0.08052,-0.0755 -0.219158,-0.18684 -0.138636,-0.11132 -0.236362,-0.17893 -0.09112,-0.0623 -0.202052,-0.14053 -0.11623,-0.0716 -0.294477,-0.21474 -0.08582,-0.0689 -0.117432,-0.13773 -0.03691,-0.0622 -0.0051,-0.10183 0.03711,-0.0462 0.09922,-0.0289 0.06872,0.0226 0.19685,0.0929 0.243062,0.13002 0.452012,0.11321 0.220852,-0.0181 0.390487,-0.22936 l 1.033712,-1.28734 q 0.02651,-0.033 0.05301,-0.066 0.02651,-0.033 -0.0065,-0.0595 l -2.521863,-2.02502 q -0.03301,-0.0265 -0.09132,0.0461 l -1.007207,1.25433 q -0.164333,0.20465 -0.134418,0.47842 0.03522,0.26716 0.227868,0.48701 0.09633,0.10992 0.126635,0.16683 0.03691,0.0622 -1.97e-4,0.10843 -0.03181,0.0396 -0.100523,0.017 -0.07402,-0.016 -0.159841,-0.0849 -0.178247,-0.14313 -0.286476,-0.25175 -0.106929,-0.0967 -0.207255,-0.18814 -0.100327,-0.0914 -0.252167,-0.21335 -0.138636,-0.11132 -0.242963,-0.18423 -0.09773,-0.0676 -0.215256,-0.15113 -0.11623,-0.0716 -0.294477,-0.21475 z"
         style="letter-spacing:1.58749998px"
         id="path3956"
         inkscape:connector-curvature="0" />
      <path
         d="m 84.300237,152.96322 q -0.09686,-0.0523 -0.144409,-0.10679 -0.05157,-0.0471 -0.02744,-0.0918 0.04825,-0.0894 0.318258,-0.001 0.311285,0.10063 0.524638,0.0618 0.213352,-0.0388 0.35408,-0.29959 l 1.817393,-3.36786 q 0.140727,-0.26079 0.08927,-0.43286 -0.044,-0.16806 -0.298996,-0.37301 -0.221759,-0.17739 -0.165468,-0.2817 0.02413,-0.0447 0.09178,-0.0274 0.07167,0.01 0.168533,0.0621 0.201178,0.10856 0.323825,0.18436 0.130097,0.0798 0.245293,0.15161 0.119216,0.0643 0.29059,0.15681 0.163922,0.0885 0.268237,0.14475 0.108335,0.0488 0.231572,0.10572 0.123237,0.0569 0.324415,0.16544 0.09686,0.0523 0.144409,0.10679 0.05157,0.0471 0.02744,0.0918 -0.02815,0.0522 -0.107858,0.0572 -0.07971,0.005 -0.218441,-0.0409 -0.303834,-0.0966 -0.490813,-0.0532 -0.186979,0.0434 -0.327706,0.3042 l -1.817393,3.36786 q -0.140728,0.26079 -0.04859,0.46444 0.09214,0.20366 0.339682,0.40458 0.114605,0.0907 0.15813,0.15268 0.04353,0.062 0.01538,0.11413 -0.02412,0.0447 -0.09177,0.0274 -0.07167,-0.01 -0.168534,-0.0621 -0.201177,-0.10857 -0.327254,-0.19584 -0.122647,-0.0758 -0.237842,-0.14759 -0.115196,-0.0718 -0.28657,-0.16426 -0.186275,-0.10052 -0.331865,-0.16946 -0.13814,-0.0649 -0.291181,-0.13789 -0.149611,-0.0615 -0.350789,-0.17006 z"
         style="letter-spacing:1.58749998px"
         id="path3958"
         inkscape:connector-curvature="0" />
      <path
         d="m 88.344515,155.01361 q -0.103801,-0.0366 -0.156416,-0.0911 -0.04745,-0.0437 -0.03337,-0.0836 0.02534,-0.0719 0.105651,-0.0705 0.09111,-0.004 0.11788,-0.003 0.333931,0.0459 0.543847,-0.0147 0.212731,-0.0686 0.305651,-0.33212 l 1.306506,-3.70492 q 0.06758,-0.19163 0.05863,-0.29354 -0.0061,-0.1099 -0.09586,-0.18643 -0.08691,-0.0845 -0.275262,-0.18684 -0.246602,-0.14083 -0.207182,-0.25262 0.0169,-0.0479 0.0864,-0.0413 0.07233,-0.001 0.176127,0.0352 0.215588,0.076 0.340528,0.12906 0.132925,0.0559 0.24988,0.10607 0.119771,0.0422 0.295435,0.10419 0.199619,0.0704 0.343344,0.12107 0.146541,0.0427 0.301067,0.0882 0.154525,0.0455 0.370113,0.12154 0.103802,0.0366 0.159233,0.0831 0.05825,0.0385 0.04135,0.0864 -0.01971,0.0559 -0.09767,0.0733 -0.07796,0.0174 -0.222145,-0.007 -0.315145,-0.0483 -0.550906,-0.0417 -0.232945,-0.001 -0.314601,0.23021 l -1.326216,3.76081 q -0.08729,0.24753 -0.01774,0.40672 0.06955,0.15919 0.460802,0.29716 l 0.990107,0.34915 q 0.215588,0.076 0.397809,0.0685 0.193021,-0.0127 0.29821,-0.0564 0.207562,-0.0794 0.31603,-0.15789 0.119268,-0.0836 0.299094,-0.26261 0.03286,-0.0423 0.114562,-0.1212 0.08968,-0.0761 0.145575,-0.0564 0.04791,0.0169 0.05497,0.0733 0.0071,0.0564 -0.0098,0.10427 -0.0028,0.008 -0.01643,0.0211 -0.0028,0.008 -0.0056,0.016 -0.129103,0.18789 -0.236142,0.33867 -0.09905,0.15361 -0.184492,0.29405 -0.07745,0.14326 -0.152554,0.30531 -0.0277,0.0531 -0.06573,0.0846 -0.03005,0.0343 -0.09393,0.0118 -0.399237,-0.14078 -0.763719,-0.27829 -0.364482,-0.13751 -0.70501,-0.26657 -0.335359,-0.11827 -0.643948,-0.23606 -0.308589,-0.1178 -0.612009,-0.2248 -0.199618,-0.0704 -0.457945,-0.15251 -0.250343,-0.0793 -0.444792,-0.1389 -0.189281,-0.0488 -0.189281,-0.0488 z"
         style="letter-spacing:1.58749998px"
         id="path3960"
         inkscape:connector-curvature="0" />
      <path
         d="m 94.534933,156.91193 q -0.108229,-0.02 -0.17021,-0.0573 -0.06352,-0.029 -0.05428,-0.0789 0.01849,-0.0999 0.302467,-0.099 0.327146,2.7e-4 0.518302,-0.10213 0.191156,-0.10239 0.245078,-0.39378 l 0.696354,-3.76304 q 0.05392,-0.29139 -0.04785,-0.43938 -0.09344,-0.14644 -0.399023,-0.26327 -0.265492,-0.10079 -0.243923,-0.21734 0.0092,-0.0499 0.07893,-0.0543 0.07122,-0.0127 0.179454,0.007 0.224783,0.0416 0.364773,0.0761 0.148315,0.0361 0.27998,0.069 0.133205,0.0247 0.324687,0.0601 0.183157,0.0339 0.299712,0.0555 0.118095,0.0132 0.252841,0.0296 0.134745,0.0163 0.359529,0.0579 0.108229,0.02 0.17021,0.0573 0.06352,0.029 0.05428,0.0789 -0.01078,0.0583 -0.08509,0.0876 -0.07431,0.0293 -0.220458,0.0281 -0.318821,0.001 -0.483461,0.1 -0.164639,0.0987 -0.21856,0.39008 l -0.696355,3.76304 q -0.05392,0.29139 0.09626,0.45695 0.150182,0.16555 0.447435,0.28083 0.136908,0.0512 0.197349,0.0968 0.06044,0.0456 0.04966,0.1039 -0.0092,0.0499 -0.07893,0.0543 -0.07122,0.0127 -0.179453,-0.007 -0.224784,-0.0416 -0.371559,-0.086 -0.13999,-0.0345 -0.271654,-0.0675 -0.131665,-0.033 -0.323147,-0.0684 -0.208133,-0.0385 -0.367855,-0.0595 -0.151396,-0.0194 -0.319443,-0.0419 -0.161262,-0.0126 -0.386046,-0.0542 z"
         style="letter-spacing:1.58749998px"
         id="path3962"
         inkscape:connector-curvature="0" />
      <path
         d="m 98.996238,157.61376 q -0.110009,-0.004 -0.176885,-0.0312 -0.06715,-0.0191 -0.0655,-0.0699 0.0033,-0.10155 0.284188,-0.14327 0.323483,-0.0488 0.471727,-0.17956 0.156707,-0.13046 0.16685,-0.44356 l 0.115687,-3.57106 q 0.01234,-0.3808 -0.08263,-0.58718 -0.08651,-0.20611 -0.40615,-0.27576 -0.143036,-0.0301 -0.209363,-0.0746 -0.06633,-0.0445 -0.06441,-0.10374 0.0016,-0.0508 0.06989,-0.0655 0.06852,-0.0232 0.178529,-0.0196 0.22848,0.007 0.338489,0.011 0.118471,0.004 0.219744,0.0156 0.101547,0.003 0.270786,0.009 0.16925,0.005 0.33877,0.002 0.17825,-0.0112 0.33085,-0.0147 0.15286,-0.012 0.27134,-0.008 0.96469,0.0313 1.5357,0.4479 0.57947,0.41691 0.55644,1.12774 -0.0167,0.51619 -0.23407,0.94965 -0.21707,0.425 -0.64868,0.67362 -0.42315,0.24889 -1.07474,0.22778 -0.18617,-0.006 -0.28607,-0.0601 -0.0912,-0.0622 -0.0895,-0.11302 10e-4,-0.0339 0.0448,-0.0748 0.0521,-0.0407 0.0945,-0.0393 0.0423,10e-4 0.12666,0.0126 0.0928,0.0115 0.26205,0.017 0.50774,0.0164 0.77531,-0.39844 0.27604,-0.41462 0.30016,-1.15929 0.0219,-0.67698 -0.36538,-1.01143 -0.38703,-0.34291 -1.00477,-0.36292 -0.23694,-0.008 -0.392,0.072 -0.15479,0.0712 -0.1611,0.26586 l -0.13076,4.03648 q -0.01,0.30464 0.11103,0.49492 0.1209,0.19028 0.43209,0.25966 0.14303,0.0301 0.20963,0.0661 0.0666,0.036 0.0647,0.0953 -0.002,0.0508 -0.0699,0.0655 -0.0685,0.0232 -0.17852,0.0196 -0.22848,-0.007 -0.35487,-0.0284 -0.11792,-0.0208 -0.2192,-0.0325 -0.0925,-0.0199 -0.25331,-0.0251 -0.211558,-0.007 -0.38135,0.005 -0.161057,0.003 -0.33085,0.0147 -0.16133,0.0117 -0.38981,0.004 z"
         style="letter-spacing:1.58749998px"
         id="path3964"
         inkscape:connector-curvature="0" />
      <path
         d="m 105.27207,157.60057 q -0.10895,0.0156 -0.1796,1.2e-4 -0.0695,-0.007 -0.0767,-0.0574 -0.0144,-0.10057 0.25491,-0.19056 0.31004,-0.10439 0.43326,-0.25894 0.1316,-0.15575 0.0871,-0.46583 l -0.50779,-3.53667 q -0.0541,-0.37713 -0.18359,-0.56383 -0.12107,-0.1879 -0.44796,-0.20084 -0.14608,-0.005 -0.21914,-0.037 -0.0731,-0.0323 -0.0815,-0.0909 -0.007,-0.0503 0.0574,-0.0767 0.0634,-0.0348 0.17238,-0.0504 0.22628,-0.0325 0.33523,-0.0481 0.11733,-0.0169 0.21911,-0.0229 0.10056,-0.0144 0.26818,-0.0385 0.16761,-0.0241 0.33402,-0.0565 0.17359,-0.042 0.32324,-0.0721 0.14845,-0.0384 0.26578,-0.0553 0.9554,-0.13718 1.59023,0.17369 0.6432,0.30966 0.74428,1.01364 0.0734,0.51123 -0.0652,0.97591 -0.13977,0.45629 -0.5215,0.77626 -0.37335,0.31876 -1.01867,0.41142 -0.18438,0.0265 -0.29216,-0.009 -0.10062,-0.0454 -0.10784,-0.0957 -0.005,-0.0335 0.0311,-0.0814 0.0443,-0.0491 0.0862,-0.0551 0.0419,-0.006 0.12691,-0.01 0.0934,-0.005 0.26101,-0.0289 0.50284,-0.0722 0.6941,-0.52734 0.19964,-0.45633 0.0937,-1.19384 -0.0963,-0.67045 -0.53588,-0.93237 -0.44083,-0.27029 -1.05262,-0.18245 -0.23466,0.0337 -0.37348,0.13916 -0.14002,0.0971 -0.11235,0.28984 l 0.57397,3.99761 q 0.0433,0.3017 0.1955,0.46803 0.15219,0.16632 0.4707,0.18047 0.14608,0.005 0.21794,0.0286 0.0719,0.0239 0.0803,0.0826 0.007,0.0503 -0.0574,0.0767 -0.0634,0.0348 -0.17238,0.0504 -0.22628,0.0325 -0.3544,0.0338 -0.11974,9e-5 -0.22151,0.006 -0.0946,-0.004 -0.25383,0.0193 -0.20952,0.0301 -0.37472,0.0709 -0.15803,0.0312 -0.32324,0.0721 -0.15683,0.0396 -0.38311,0.0721 z"
         style="letter-spacing:1.58749998px"
         id="path3966"
         inkscape:connector-curvature="0" />
      <path
         d="m 111.396,156.46808 q -0.10532,0.032 -0.17751,0.0273 -0.0697,0.003 -0.0845,-0.0451 -0.0295,-0.0972 0.2231,-0.22697 0.29066,-0.15015 0.41336,-0.32895 0.1227,-0.1788 0.0366,-0.46236 l -1.11133,-3.66202 q -0.0861,-0.28356 -0.24446,-0.36821 -0.15031,-0.0871 -0.47539,-0.0504 -0.28211,0.0325 -0.31653,-0.0809 -0.0148,-0.0486 0.0451,-0.0845 0.0574,-0.044 0.16276,-0.0759 0.21875,-0.0664 0.35894,-0.10008 0.14829,-0.0362 0.28038,-0.0674 0.12963,-0.0393 0.31597,-0.0959 0.17824,-0.0541 0.29167,-0.0885 0.11096,-0.0425 0.23813,-0.09 0.12717,-0.0474 0.34592,-0.11382 0.10532,-0.032 0.17751,-0.0273 0.0697,-0.003 0.0845,0.0451 0.0172,0.0567 -0.0353,0.11689 -0.0525,0.0602 -0.18288,0.12629 -0.28255,0.14768 -0.3834,0.31101 -0.10085,0.16332 -0.0148,0.44688 l 1.11134,3.66202 q 0.0861,0.28356 0.29553,0.36156 0.20947,0.078 0.52645,0.0437 0.14511,-0.0175 0.21976,-0.005 0.0747,0.0127 0.0919,0.0694 0.0148,0.0486 -0.0451,0.0845 -0.0574,0.044 -0.16276,0.0759 -0.21875,0.0664 -0.3695,0.0944 -0.14019,0.0337 -0.27227,0.0649 -0.13209,0.0312 -0.31843,0.0878 -0.20255,0.0615 -0.35402,0.11629 -0.14338,0.0523 -0.30295,0.10963 -0.14902,0.0629 -0.36777,0.1293 z"
         style="letter-spacing:1.58749998px"
         id="path3968"
         inkscape:connector-curvature="0" />
      <path
         d="m 120.38823,152.80776 q -0.0677,0.0349 -0.32912,0.0267 -0.25385,-0.0121 -0.56244,-0.16745 -0.0495,-0.0221 -0.30447,-0.12888 -0.24746,-0.11064 -0.63177,-0.26507 -0.38066,-0.16584 -0.82973,-0.35358 -0.44908,-0.18774 -0.89816,-0.37548 -0.44908,-0.18774 -0.83338,-0.34218 -0.38818,-0.16196 -0.6507,-0.26484 -0.25886,-0.11429 -0.31976,-0.14007 -0.0876,-0.0406 -0.13684,-0.0438 -0.0531,-0.0107 -0.0832,0.005 -0.0376,0.0194 -0.0217,0.0874 0.0121,0.0604 0.0353,0.1056 0.18244,0.3727 0.42303,0.8583 0.2406,0.4856 0.4967,1.0013 0.2561,0.51571 0.49646,0.98238 0.10468,0.20323 0.29169,0.32594 0.19455,0.11885 0.50018,0.0281 0.13959,-0.0433 0.21531,-0.0442 0.0757,-9.1e-4 0.10286,0.0518 0.0233,0.0452 -0.0292,0.0912 -0.0486,0.0536 -0.14643,0.10399 -0.20323,0.10468 -0.31636,0.1439 -0.10172,0.0429 -0.1884,0.078 -0.0791,0.0312 -0.22215,0.10491 -0.13549,0.0698 -0.20688,0.11607 -0.0714,0.0463 -0.16537,0.10423 -0.0901,0.0654 -0.29332,0.17013 -0.0978,0.0504 -0.16969,0.0588 -0.068,0.016 -0.0912,-0.0292 -0.0271,-0.0527 0.0176,-0.11381 0.0447,-0.0611 0.15715,-0.15714 0.18727,-0.17264 0.2037,-0.38111 0.0126,-0.21599 -0.085,-0.46095 -0.11721,-0.30153 -0.32747,-0.78371 -0.21414,-0.4897 -0.49007,-1.0809 -0.27982,-0.59873 -0.59772,-1.21594 -0.20548,-0.39893 -0.5054,-0.46349 -0.29239,-0.0685 -0.67785,-0.003 -0.0379,4.5e-4 -0.1665,0.01 -0.12499,-0.002 -0.15988,-0.07 -0.0349,-0.0677 0.0251,-0.11769 0.0561,-0.0575 0.0937,-0.0769 0.22216,-0.1049 0.36152,-0.16716 0.13549,-0.0698 0.24474,-0.11653 0.10925,-0.0468 0.24109,-0.10513 0.12795,-0.0659 0.33118,-0.17058 0.0677,-0.0349 0.12476,-0.0166 0.057,0.0182 0.12179,0.0515 0.0534,0.0297 0.32752,0.15512 0.27779,0.11406 0.68901,0.30225 0.41486,0.17679 0.90591,0.39053 0.48716,0.20622 0.9782,0.41996 0.48717,0.20622 0.90591,0.39054 0.41487,0.17679 0.68514,0.29472 0.27779,0.11406 0.32728,0.13619 0.0456,0.0146 0.12932,0.0477 0.0912,0.0292 0.13639,0.006 0.0678,-0.0349 -0.006,-0.19683 -0.0543,-0.10538 -0.20548,-0.39893 -0.14754,-0.30495 -0.36465,-0.72646 -0.21345,-0.43291 -0.46933,-0.92968 -0.25587,-0.49678 -0.52337,-1.01614 -0.0851,-0.14666 -0.29763,-0.18955 -0.21257,-0.0429 -0.35216,4.3e-4 -0.13959,0.0433 -0.26435,0.06 -0.12476,0.0166 -0.1519,-0.036 -0.0233,-0.0452 0.0744,-0.11449 0.0937,-0.0768 0.1916,-0.12725 0.0753,-0.0388 0.14301,-0.0737 0.0753,-0.0388 0.14301,-0.0737 0.0753,-0.0388 0.14301,-0.0737 0.18065,-0.093 0.28602,-0.14733 0.1015,-0.0618 0.21806,-0.13136 0.12408,-0.0734 0.34989,-0.18974 0.0978,-0.0504 0.16969,-0.0588 0.068,-0.016 0.0912,0.0292 0.0543,0.10538 -0.17085,0.27848 -0.25136,0.19613 -0.29903,0.32545 -0.0477,0.12932 0.0342,0.32524 0.0194,0.0376 0.14367,0.29743 0.13181,0.25591 0.33341,0.64731 0.2016,0.3914 0.42668,0.84689 0.23261,0.45162 0.46523,0.90323 0.22873,0.44409 0.41094,0.79785 0.0931,0.18065 0.17811,0.32731 0.0887,0.13526 0.15052,0.23676 0.0579,0.094 0.0851,0.14666 0.062,0.12043 0.0249,0.17768 -0.0258,0.0609 -0.086,0.0919 z"
         style="letter-spacing:1.58749998px"
         id="path3970"
         inkscape:connector-curvature="0" />
      <path
         d="m 123.0117,150.91312 q -0.0854,0.0694 -0.15402,0.0924 -0.0632,0.0296 -0.0953,-0.01 -0.0641,-0.0789 0.12079,-0.29445 0.21237,-0.24885 0.24526,-0.45008 0.0329,-0.20123 -0.15927,-0.43783 l -2.40205,-2.9574 q -0.19216,-0.23659 -0.37081,-0.25511 -0.17208,-0.0239 -0.45918,0.13299 -0.12774,0.071 -0.20701,0.0809 -0.0793,0.01 -0.11663,-0.0362 -0.032,-0.0394 0.01,-0.0953 0.0366,-0.0624 0.122,-0.13181 0.24973,-0.20284 0.42594,-0.33505 0.18278,-0.13756 0.35242,-0.26443 0.17088,-0.13879 0.4009,-0.32561 0.21687,-0.17615 0.45346,-0.36832 0.23783,-0.20407 0.44156,-0.36955 0.21811,-0.18806 0.36927,-0.31083 0.15239,-0.13468 0.17868,-0.15603 0.0329,-0.0267 0.083,-0.0456 0.0501,-0.0189 0.0834,0.009 0.18232,0.15732 0.36464,0.31465 0.17698,0.15075 0.28374,0.2822 0.048,0.0591 0.0312,0.10555 -0.0103,0.0411 -0.0431,0.0678 -0.0329,0.0267 -0.0567,0.0242 -0.0292,-0.009 -0.069,-0.0312 -0.12361,-0.085 -0.23653,-0.15692 -0.11827,-0.0785 -0.20164,-0.0871 -0.17741,-0.0304 -0.31583,0.0275 -0.14375,0.0513 -0.26862,0.15273 l -0.86093,0.69926 q -0.0526,0.0427 -0.0965,0.17659 -0.044,0.13387 0.0308,0.22588 l 1.13163,1.39327 q 0.048,0.0592 0.11827,0.0785 0.0715,0.007 0.11746,-0.03 l 0.65063,-0.52845 q 0.19059,-0.1548 0.2095,-0.27924 0.0136,-0.13101 -0.0899,-0.35239 -0.078,-0.17661 8.6e-4,-0.24066 0.0263,-0.0213 0.0739,-0.0164 0.0542,-4e-4 0.0969,0.0522 0.0213,0.0263 0.0895,0.12363 0.0747,0.092 0.14822,0.19593 0.0735,0.10392 0.1162,0.15649 0.0534,0.0657 0.14412,0.17745 0.092,0.0998 0.17205,0.19839 0.0866,0.0932 0.10799,0.11953 0.0374,0.046 0.0509,0.0895 0.0201,0.0382 -0.0193,0.0702 -0.0986,0.0801 -0.32197,-0.0875 -0.1622,-0.11913 -0.28664,-0.13804 -0.12444,-0.0189 -0.25588,0.0879 l -0.61119,0.49642 q -0.11173,0.0907 -0.14419,0.17164 -0.0312,0.069 0.0595,0.18072 l 1.02488,1.26183 q 0.20284,0.24973 0.38806,0.26291 0.17988,0.007 0.40333,-0.17489 l 0.48633,-0.395 q 0.2103,-0.17082 0.3323,-0.30263 0.12323,-0.14372 0.17501,-0.29485 0.0464,-0.15769 0.0292,-0.34005 -0.0106,-0.18768 -0.0656,-0.47025 -0.0123,-0.0555 -0.007,-0.10309 0.005,-0.0476 0.0431,-0.0677 0.0382,-0.0201 0.0793,-0.01 0.0357,0.004 0.0678,0.0431 0.048,0.0592 0.13795,0.23699 0.0846,0.17128 0.16011,0.37171 0.0821,0.19509 0.1174,0.31913 0.0177,0.062 0.0246,0.11089 0.0136,0.0435 -0.0259,0.0756 -0.31546,0.25622 -0.59025,0.4685 -0.27479,0.21228 -0.52329,0.40321 -0.24851,0.19093 -0.49044,0.37652 -0.23536,0.18026 -0.48509,0.3831 -0.14459,0.11743 -0.2444,0.20941 -0.0945,0.0985 -0.20086,0.19587 -0.10105,0.10389 -0.2785,0.24801 z"
         style="letter-spacing:1.58749998px"
         id="path3972"
         inkscape:connector-curvature="0" />
      <path
         d="m 128.63033,145.88191 q -0.23502,0.26687 -0.51907,0.42286 -0.2721,0.15523 -0.57492,0.20443 -0.0478,0.003 -0.10195,4.7e-4 -0.0486,-0.009 -0.0979,-0.0298 -0.15506,-0.0802 -0.36957,-0.24651 -0.20892,-0.17271 -0.35354,-0.27752 -0.0445,-0.0392 -0.03,-0.0941 0.008,-0.0605 0.0529,-0.11133 0.028,-0.0318 0.075,-0.0468 0.0407,-0.0206 0.0844,0.007 0.60116,0.3038 1.02908,0.24066 0.43351,-0.0695 0.67413,-0.3427 0.19585,-0.22239 0.25163,-0.47788 0.0558,-0.25549 -0.0318,-0.50188 -0.0884,-0.25835 -0.32347,-0.46539 -0.26051,-0.22943 -0.49769,-0.28037 -0.23795,-0.0629 -0.49857,-0.0104 -0.26062,0.0525 -0.60185,0.15815 -0.37708,0.10791 -0.74857,0.20946 -0.37784,0.096 -0.72741,0.0701 -0.35593,-0.0314 -0.66091,-0.30001 -0.32405,-0.28538 -0.45585,-0.66095 -0.1318,-0.37557 -0.0269,-0.80214 0.10416,-0.43853 0.49587,-0.8833 0.20145,-0.22874 0.39777,-0.34917 0.19557,-0.13238 0.32958,-0.19487 0.0638,-0.0341 0.13628,-0.0266 0.078,0.001 0.14007,0.0331 0.16701,0.0794 0.37773,0.186 0.21073,0.10661 0.36322,0.24091 0.0699,0.0616 -0.014,0.15687 -0.0504,0.0572 -0.12614,0.092 -0.0702,0.0284 -0.11949,0.008 -0.45427,-0.16315 -0.78886,-0.14192 -0.33459,0.0212 -0.57521,0.29443 -0.16787,0.19062 -0.24347,0.41737 -0.0756,0.22676 -0.0119,0.47467 0.0693,0.24155 0.33618,0.47658 0.19061,0.16787 0.45578,0.18705 0.26441,0.007 0.58326,-0.073 0.31885,-0.0802 0.67203,-0.18661 0.32929,-0.10487 0.67279,-0.17465 0.34911,-0.0761 0.689,-0.0137 0.33914,0.0505 0.65683,0.33027 0.37488,0.33015 0.50971,0.75352 0.12849,0.41777 0.007,0.8634 -0.1217,0.44564 -0.49103,0.86499 z"
         style="letter-spacing:1.58749998px"
         id="path3974"
         inkscape:connector-curvature="0" />
    </g>
    <circle
       style="opacity:1;fill:#000000;fill-opacity:1;fill-rule:nonzero;stroke:none;stroke-width:0.03704166;stroke-linecap:square;stroke-linejoin:bevel;stroke-miterlimit:4;stroke-dasharray:none;stroke-dashoffset:0;stroke-opacity:1"
       id="path3937"
       cx="72.354088"
       cy="135.85928"
       r="0.92604166" />
    <circle
       style="opacity:1;fill:#000000;fill-opacity:1;fill-rule:nonzero;stroke:none;stroke-width:0.03704166;stroke-linecap:square;stroke-linejoin:bevel;stroke-miterlimit:4;stroke-dasharray:none;stroke-dashoffset:0;stroke-opacity:1"
       id="path3937-9"
       cx="131.62074"
       cy="135.85928"
       r="0.92604166" />
  </g>
</svg>
