<?xml version="1.0" encoding="UTF-8"?>
<svg version="1.1" viewBox="0 0 2048 2048" width="1280" height="1280" xmlns="http://www.w3.org/2000/svg">
<path transform="translate(1008,646)" d="m0 0h33l26 2 27 4 23 5 28 8 32 13 19 9 21 12 19 12 26 20 14 12 16 15 14 15 18 22 13 18 11 18 14 25 11 24 10 27 9 32 5 26 4 33 1 16v27l-4 37-5 26-7 27-10 29-10 23-12 24-14 23-14 20-11 14-12 14-12 13-9 9-8 7-10 9-13 10-18 13-21 13-24 13-25 11-36 12-31 7-27 4-21 2h-45l-30-3-28-5-24-6-33-11-21-9-21-10-24-14-12-8-14-10-10-8-11-9-12-11-23-23-9-11-12-15-12-17-12-20-11-20-12-28-8-22-9-34-5-28-3-27-1-31 2-33 4-29 6-28 7-24 7-20 11-26 15-29 15-23 10-14 11-14 12-14 25-25 11-9 15-12 22-15 22-13 17-9 23-10 21-8 31-9 24-5 27-4z" fill="#FAB635"/>
<path transform="translate(1008,646)" d="m0 0h33l26 2 27 4 23 5 28 8 32 13 19 9 21 12 19 12 26 20 14 12 16 15 14 15 18 22 13 18 11 18 14 25 11 24 10 27 9 32 5 26 4 33 1 16v27l-4 37-5 26-7 27-10 29-10 23-12 24-14 23-14 20-11 14-12 14-12 13-9 9-8 7-10 9-13 10-18 13-21 13-24 13-25 11-36 12-31 7-27 4-21 2h-45l-30-3-28-5-24-6-33-11-21-9-21-10-24-14-12-8-14-10-10-8-11-9-12-11-23-23-9-11-12-15-12-17-12-20-11-20-12-28-8-22-9-34-5-28-3-27-1-31 2-33 4-29 6-28 7-24 7-20 11-26 15-29 15-23 10-14 11-14 12-14 25-25 11-9 15-12 22-15 22-13 17-9 23-10 21-8 31-9 24-5 27-4zm-1 61-22 2-32 6-25 7-25 9-29 14-22 13-20 14-13 11-14 12-17 17-7 8-12 15-16 24-12 22-9 19-9 25-7 25-5 26-3 25v44l3 27 5 25 6 23 9 25 9 20 11 21 7 11 12 17 9 11 12 14 17 17 8 7 16 13 22 15 19 11 22 11 23 9 31 9 26 5 23 3 13 1h31l27-3 36-7 27-8 24-10 16-8 20-11 19-13 16-13 14-12 12-12 7-8 12-14 10-14 11-17 8-14 9-17 10-24 9-27 6-26 4-24 2-24v-18l-2-26-5-30-5-20-10-30-10-23-10-19-15-24-10-13-8-10-12-14-19-19-11-9-18-14-20-13-24-13-27-12-27-9-26-6-27-4-13-1z" fill="#231816"/>
<path transform="translate(1020,377)" d="m0 0h8l10 3 9 6 5 7 2 6 1 7v129l-1 11-6 12-8 6-8 3h-17l-9-4-8-7-4-9-1-5v-141l4-10 7-8 10-5z" fill="#261A16"/>
<path transform="translate(1019,1480)" d="m0 0h8l10 2 9 6 6 8 2 5 1 8v127l-1 13-5 10-9 8-9 3h-15l-10-4-6-5-5-9-2-7v-140l3-10 9-10 9-4z" fill="#261A16"/>
<path transform="translate(1439,1236)" d="m0 0h11l11 4 23 13 24 14 26 15 28 16 14 9 6 5 5 8 1 3v15l-7 14-8 7-10 4h-10l-11-4-28-16-24-14-52-30-14-9-6-7-4-10v-9l4-12 9-10 8-5z" fill="#241916"/>
<path transform="translate(483,685)" d="m0 0h14l17 8 22 13 52 30 24 14 12 8 6 7 3 7 1 8-2 10-6 11-8 7-7 3-11 1-11-3-24-14-23-13-24-14-21-12-22-13-9-7-5-8-2-7v-7l3-10 6-10 8-6z" fill="#241916"/>
<path transform="translate(775,1414)" d="m0 0h8l10 3 9 6 6 7 4 10v9l-3 9-12 22-14 24-30 52-10 17-7 9-9 5-4 1h-13l-10-4-10-9-4-8-2-7 1-9 8-16 32-56 14-24 15-26 9-10 8-4z" fill="#251916"/>
<path transform="translate(599,1236)" d="m0 0h8l11 4 8 7 5 9 2 5v15l-5 10-9 8-27 15-22 13-52 30-16 9-6 2h-12l-8-3-10-9-6-12-1-11 2-8 5-8 7-6 24-14 78-45 16-9z" fill="#251916"/>
<path transform="translate(1327,459)" d="m0 0 12 1 12 6 7 7 4 8 1 3v12l-5 12-14 24-15 26-14 24-13 23-10 16-6 7-8 4-3 1h-14l-10-4-9-8-6-12v-11l4-11 12-21 14-24 15-26 16-28 9-15 8-9 8-4z" fill="#251916"/>
<path transform="translate(714,459)" d="m0 0 11 1 10 5 8 10 16 28 15 26 14 24 16 28 7 14 1 4v8l-4 10-7 8-5 4-11 4h-13l-10-5-8-9-15-26-12-21-14-24-15-26-9-16-4-9-1-10 4-11 6-8 9-6z" fill="#241916"/>
<path transform="translate(1550,685)" d="m0 0h15l10 5 7 7 5 10 1 3v15l-5 9-7 7-26 15-21 12-26 15-41 24-10 4h-14l-8-3-7-6-6-10-3-9v-9l4-10 4-5 10-7 78-45 24-14z" fill="#241916"/>
<path transform="translate(1265,1414)" d="m0 0h7l10 3 8 7 7 10 14 25 10 17 30 52 9 16 3 7v14l-6 11-8 7-9 4-4 1h-12l-8-3-6-5-9-14-45-78-14-24-5-11-1-4v-9l4-10 8-9 12-6z" fill="#241916"/>
<path transform="translate(1507,993)" d="m0 0h137l9 2 9 6 6 9 3 11-1 11-4 9-8 9-10 4-97 1h-32l-18-1-10-5-7-8-4-11v-12l4-11 7-8 9-5z" fill="#251916"/>
<path transform="translate(403,993)" d="m0 0h137l10 2 8 5 6 8 3 7 1 5v8l-3 10-6 9-5 4-9 3-127 1-19-1-9-4-5-4-6-10-2-7v-10l4-12 7-8 10-5z" fill="#241916"/>
</svg>
